<?xml version="1.0" encoding="UTF-8" standalone="no"?>
<!DOCTYPE svg PUBLIC "-//W3C//DTD SVG 1.1//EN"
 "http://www.w3.org/Graphics/SVG/1.1/DTD/svg11.dtd">
<!-- Generated by graphviz version 2.28.0 (20110509.1545)
 -->
<!-- Title: Property_QA_compare_ Pages: 1 -->
<svg width="155pt" height="138pt"
 viewBox="0.00 0.00 155.00 138.00" xmlns="http://www.w3.org/2000/svg" xmlns:xlink="http://www.w3.org/1999/xlink">
<g id="graph1" class="graph" transform="scale(1 1) rotate(0) translate(4 134)">
<title>Property_QA_compare_</title>
<polygon fill="#ffffff" stroke="#ffffff" points="-4,5 -4,-134 152,-134 152,5 -4,5"/>
<g id="graph2" class="cluster"><title>cluster_Property_QA_compare_sources</title>
<polygon fill="#ffffff" stroke="black" stroke-dasharray="1,5" points="8,-84 8,-122 139,-122 139,-84 8,-84"/>
</g>
<g id="graph3" class="cluster"><title>cluster_Property_QA_compare_sinks</title>
<polygon fill="#ffffff" stroke="black" stroke-dasharray="1,5" points="32,-8 32,-46 113,-46 113,-8 32,-8"/>
</g>
<!-- Property_QA_compare_WORKFLOWINTERNALSOURCECONTROL -->
<g id="node2" class="node"><title>Property_QA_compare_WORKFLOWINTERNALSOURCECONTROL</title>
<polygon fill="#ff4040" stroke="black" points="124,-109 117,-100 131,-100 124,-109"/>
</g>
<!-- Property_QA_compare_WORKFLOWINTERNALSOURCE_height_left -->
<g id="node3" class="node"><title>Property_QA_compare_WORKFLOWINTERNALSOURCE_height_left</title>
<ellipse fill="#8ed6f0" stroke="black" cx="102" cy="-103" rx="10.25" ry="10.5"/>
</g>
<!-- Property_QA_compare_compare_height -->
<g id="node11" class="node"><title>Property_QA_compare_compare_height</title>
<ellipse fill="#deb887" stroke="black" cx="64" cy="-65" rx="10.25" ry="10.5"/>
</g>
<!-- Property_QA_compare_WORKFLOWINTERNALSOURCE_height_left&#45;&gt;Property_QA_compare_compare_height -->
<g id="edge14" class="edge"><title>Property_QA_compare_WORKFLOWINTERNALSOURCE_height_left:s&#45;&gt;Property_QA_compare_compare_height:iheight1:n</title>
<path fill="none" stroke="#000000" d="M102,-91C102,-81.1412 92.9627,-74.9525 83.7026,-71.199"/>
<polygon fill="#000000" stroke="#000000" points="84.5766,-67.8025 73.9841,-68.0233 82.4023,-74.4563 84.5766,-67.8025"/>
</g>
<!-- Property_QA_compare_WORKFLOWINTERNALSOURCE_height_right -->
<g id="node4" class="node"><title>Property_QA_compare_WORKFLOWINTERNALSOURCE_height_right</title>
<ellipse fill="#8ed6f0" stroke="black" cx="77" cy="-103" rx="10.25" ry="10.5"/>
</g>
<!-- Property_QA_compare_WORKFLOWINTERNALSOURCE_height_right&#45;&gt;Property_QA_compare_compare_height -->
<g id="edge4" class="edge"><title>Property_QA_compare_WORKFLOWINTERNALSOURCE_height_right:s&#45;&gt;Property_QA_compare_compare_height:iheight2:n</title>
<path fill="none" stroke="#000000" d="M77,-91C77,-87.9731 76.2406,-84.9489 75.0888,-82.103"/>
<polygon fill="#000000" stroke="#000000" points="78.1368,-80.3824 70.1954,-73.3691 72.0299,-83.8039 78.1368,-80.3824"/>
</g>
<!-- Property_QA_compare_WORKFLOWINTERNALSOURCE_width_left -->
<g id="node5" class="node"><title>Property_QA_compare_WORKFLOWINTERNALSOURCE_width_left</title>
<ellipse fill="#8ed6f0" stroke="black" cx="52" cy="-103" rx="10.25" ry="10.5"/>
</g>
<!-- Property_QA_compare_WORKFLOWINTERNALSOURCE_width_left&#45;&gt;Property_QA_compare_compare_height -->
<g id="edge12" class="edge"><title>Property_QA_compare_WORKFLOWINTERNALSOURCE_width_left:s&#45;&gt;Property_QA_compare_compare_height:iwidth1:n</title>
<path fill="none" stroke="#000000" d="M52,-91C52,-88.3039 52.5742,-85.5911 53.4714,-82.9979"/>
<polygon fill="#000000" stroke="#000000" points="56.6872,-84.3914 58,-73.8782 50.4176,-81.2781 56.6872,-84.3914"/>
</g>
<!-- Property_QA_compare_WORKFLOWINTERNALSOURCE_width_right -->
<g id="node6" class="node"><title>Property_QA_compare_WORKFLOWINTERNALSOURCE_width_right</title>
<ellipse fill="#8ed6f0" stroke="black" cx="27" cy="-103" rx="10.25" ry="10.5"/>
</g>
<!-- Property_QA_compare_WORKFLOWINTERNALSOURCE_width_right&#45;&gt;Property_QA_compare_compare_height -->
<g id="edge10" class="edge"><title>Property_QA_compare_WORKFLOWINTERNALSOURCE_width_right:s&#45;&gt;Property_QA_compare_compare_height:iwidth2:n</title>
<path fill="none" stroke="#000000" d="M27,-91C27,-81.5371 35.4117,-75.4146 44.2137,-71.5983"/>
<polygon fill="#000000" stroke="#000000" points="45.6056,-74.8194 53.8896,-68.2144 43.2947,-68.2119 45.6056,-74.8194"/>
</g>
<!-- Property_QA_compare_WORKFLOWINTERNALSINKCONTROL -->
<g id="node8" class="node"><title>Property_QA_compare_WORKFLOWINTERNALSINKCONTROL</title>
<polygon fill="#66cd00" stroke="black" points="98,-21 105,-30 91,-30 98,-21"/>
</g>
<!-- Property_QA_compare_WORKFLOWINTERNALSINK_height_equals -->
<g id="node9" class="node"><title>Property_QA_compare_WORKFLOWINTERNALSINK_height_equals</title>
<ellipse fill="#8ed6f0" stroke="black" cx="76" cy="-27" rx="10.25" ry="10.5"/>
</g>
<!-- Property_QA_compare_WORKFLOWINTERNALSINK_wdith_equals -->
<g id="node10" class="node"><title>Property_QA_compare_WORKFLOWINTERNALSINK_wdith_equals</title>
<ellipse fill="#8ed6f0" stroke="black" cx="51" cy="-27" rx="10.25" ry="10.5"/>
</g>
<!-- Property_QA_compare_compare_height&#45;&gt;Property_QA_compare_WORKFLOWINTERNALSINK_height_equals -->
<g id="edge6" class="edge"><title>Property_QA_compare_compare_height:oheightEquals:s&#45;&gt;Property_QA_compare_WORKFLOWINTERNALSINK_height_equals:n</title>
<path fill="none" stroke="#000000" d="M70,-56.1218C71.3594,-53.9879 72.7188,-51.5376 73.799,-48.9225"/>
<polygon fill="#000000" stroke="#000000" points="77.2513,-49.5207 76,-39 70.4174,-48.0047 77.2513,-49.5207"/>
</g>
<!-- Property_QA_compare_compare_height&#45;&gt;Property_QA_compare_WORKFLOWINTERNALSINK_wdith_equals -->
<g id="edge8" class="edge"><title>Property_QA_compare_compare_height:owidthEquals:s&#45;&gt;Property_QA_compare_WORKFLOWINTERNALSINK_wdith_equals:n</title>
<path fill="none" stroke="#000000" d="M57.8046,-56.6309C56.1828,-54.3405 54.5356,-51.6474 53.2681,-48.7453"/>
<polygon fill="#000000" stroke="#000000" points="56.6758,-47.9463 51,-39 49.858,-49.5331 56.6758,-47.9463"/>
</g>
</g>
</svg>
