<?xml version="1.0" encoding="UTF-8" standalone="no"?>
<!DOCTYPE svg PUBLIC "-//W3C//DTD SVG 1.1//EN"
 "http://www.w3.org/Graphics/SVG/1.1/DTD/svg11.dtd">
<!-- Generated by graphviz version 2.28.0 (20110509.1545)
 -->
<!-- Title: Imagemagick_identify Pages: 1 -->
<svg width="130pt" height="176pt"
 viewBox="0.00 0.00 130.00 176.00" xmlns="http://www.w3.org/2000/svg" xmlns:xlink="http://www.w3.org/1999/xlink">
<g id="graph1" class="graph" transform="scale(1 1) rotate(0) translate(4 172)">
<title>Imagemagick_identify</title>
<polygon fill="#ffffff" stroke="#ffffff" points="-4,5 -4,-172 127,-172 127,5 -4,5"/>
<g id="graph2" class="cluster"><title>cluster_Imagemagick_identifysources</title>
<polygon fill="#ffffff" stroke="black" stroke-dasharray="1,5" points="10,-122 10,-160 66,-160 66,-122 10,-122"/>
</g>
<g id="graph3" class="cluster"><title>cluster_Imagemagick_identifysinks</title>
<polygon fill="#ffffff" stroke="black" stroke-dasharray="1,5" points="8,-8 8,-46 114,-46 114,-8 8,-8"/>
</g>
<!-- Imagemagick_identifyWORKFLOWINTERNALSOURCECONTROL -->
<g id="node2" class="node"><title>Imagemagick_identifyWORKFLOWINTERNALSOURCECONTROL</title>
<polygon fill="#ff4040" stroke="black" points="51,-147 44,-138 58,-138 51,-147"/>
</g>
<!-- Imagemagick_identifyWORKFLOWINTERNALSOURCE_source_path -->
<g id="node3" class="node"><title>Imagemagick_identifyWORKFLOWINTERNALSOURCE_source_path</title>
<ellipse fill="#8ed6f0" stroke="black" cx="29" cy="-141" rx="10.25" ry="10.5"/>
</g>
<!-- Imagemagick_identifyidentify -->
<g id="node9" class="node"><title>Imagemagick_identifyidentify</title>
<ellipse fill="#f28c55" stroke="black" cx="29" cy="-103" rx="10.25" ry="10.5"/>
</g>
<!-- Imagemagick_identifyWORKFLOWINTERNALSOURCE_source_path&#45;&gt;Imagemagick_identifyidentify -->
<g id="edge12" class="edge"><title>Imagemagick_identifyWORKFLOWINTERNALSOURCE_source_path:s&#45;&gt;Imagemagick_identifyidentify:isource_path:n</title>
<path fill="none" stroke="#000000" d="M29,-129C29,-127.427 29,-125.798 29,-124.16"/>
<polygon fill="#000000" stroke="#000000" points="32.5001,-123.735 29,-113.735 25.5001,-123.735 32.5001,-123.735"/>
</g>
<!-- Imagemagick_identifyWORKFLOWINTERNALSINKCONTROL -->
<g id="node5" class="node"><title>Imagemagick_identifyWORKFLOWINTERNALSINKCONTROL</title>
<polygon fill="#66cd00" stroke="black" points="99,-21 106,-30 92,-30 99,-21"/>
</g>
<!-- Imagemagick_identifyWORKFLOWINTERNALSINK_image_width -->
<g id="node6" class="node"><title>Imagemagick_identifyWORKFLOWINTERNALSINK_image_width</title>
<ellipse fill="#8ed6f0" stroke="black" cx="77" cy="-27" rx="10.25" ry="10.5"/>
</g>
<!-- Imagemagick_identifyWORKFLOWINTERNALSINK_image_height -->
<g id="node7" class="node"><title>Imagemagick_identifyWORKFLOWINTERNALSINK_image_height</title>
<ellipse fill="#8ed6f0" stroke="black" cx="52" cy="-27" rx="10.25" ry="10.5"/>
</g>
<!-- Imagemagick_identifyWORKFLOWINTERNALSINK_image_resolution -->
<g id="node8" class="node"><title>Imagemagick_identifyWORKFLOWINTERNALSINK_image_resolution</title>
<ellipse fill="#8ed6f0" stroke="black" cx="27" cy="-27" rx="10.25" ry="10.5"/>
</g>
<!-- Imagemagick_identifyidentify&#45;&gt;Imagemagick_identifyWORKFLOWINTERNALSINK_image_resolution -->
<g id="edge10" class="edge"><title>Imagemagick_identifyidentify:oSTDOUT:s&#45;&gt;Imagemagick_identifyWORKFLOWINTERNALSINK_image_resolution:n</title>
<path fill="none" stroke="#000000" d="M28.4953,-92.1819C28.0093,-82.0176 27.3144,-65.4079 27.0804,-49.3772"/>
<polygon fill="#000000" stroke="#000000" points="30.5775,-48.9725 27,-39 23.5777,-49.0269 30.5775,-48.9725"/>
</g>
<!-- Imagemagick_identifyextractSize -->
<g id="node10" class="node"><title>Imagemagick_identifyextractSize</title>
<ellipse fill="#deb887" stroke="black" cx="52" cy="-65" rx="10.25" ry="10.5"/>
</g>
<!-- Imagemagick_identifyidentify&#45;&gt;Imagemagick_identifyextractSize -->
<g id="edge6" class="edge"><title>Imagemagick_identifyidentify:oSTDOUT:s&#45;&gt;Imagemagick_identifyextractSize:iinput:n</title>
<path fill="none" stroke="#000000" d="M34.3345,-93.6504C36.3665,-90.4698 38.7632,-86.7185 41.1246,-83.0224"/>
<polygon fill="#000000" stroke="#000000" points="44.26,-84.6157 46.6945,-74.3043 38.3611,-80.8469 44.26,-84.6157"/>
</g>
<!-- Imagemagick_identifyextractSize&#45;&gt;Imagemagick_identifyWORKFLOWINTERNALSINK_image_width -->
<g id="edge8" class="edge"><title>Imagemagick_identifyextractSize:owidth:s&#45;&gt;Imagemagick_identifyWORKFLOWINTERNALSINK_image_width:n</title>
<path fill="none" stroke="#000000" d="M61.0256,-59.5938C65.5012,-56.9689 70.6223,-53.2252 73.8337,-48.5087"/>
<polygon fill="#000000" stroke="#000000" points="77.1614,-49.5936 77,-39 70.5199,-47.382 77.1614,-49.5936"/>
</g>
<!-- Imagemagick_identifyextractSize&#45;&gt;Imagemagick_identifyWORKFLOWINTERNALSINK_image_height -->
<g id="edge4" class="edge"><title>Imagemagick_identifyextractSize:oheight:s&#45;&gt;Imagemagick_identifyWORKFLOWINTERNALSINK_image_height:n</title>
<path fill="none" stroke="#000000" d="M52,-54.2646C52,-52.6748 52,-50.9692 52,-49.2107"/>
<polygon fill="#000000" stroke="#000000" points="55.5001,-49 52,-39 48.5001,-49 55.5001,-49"/>
</g>
</g>
</svg>
