<?xml version="1.0" encoding="UTF-8" standalone="no"?>
<!DOCTYPE svg PUBLIC "-//W3C//DTD SVG 1.1//EN"
 "http://www.w3.org/Graphics/SVG/1.1/DTD/svg11.dtd">
<!-- Generated by graphviz version 2.26.3 (20100126.1600)
 -->
<!-- Title: Imagemagick_convert_ Pages: 1 -->
<svg width="145" height="168"
 viewBox="0.00 0.00 145.00 168.00" xmlns="http://www.w3.org/2000/svg" xmlns:xlink="http://www.w3.org/1999/xlink">
<g id="graph1" class="graph" transform="scale(1 1) rotate(0) translate(4 164)">
<polygon fill="#ffffff" stroke="#ffffff" points="-4,5 -4,-164 142,-164 142,5 -4,5"/>
<g id="graph2" class="cluster">
<polygon fill="#ffffff" stroke="black" stroke-dasharray="1,5" points="8,-114 8,-152 86,-152 86,-114 8,-114"/>
</g>
<g id="graph3" class="cluster">
<polygon fill="#ffffff" stroke="black" stroke-dasharray="1,5" points="51,-8 51,-46 129,-46 129,-8 51,-8"/>
</g>
<!-- Imagemagick_convert_WORKFLOWINTERNALSOURCECONTROL -->
<g id="node2" class="node">
<polygon fill="#ff4040" stroke="black" points="71,-139 64,-130 78,-130 71,-139"/>
</g>
<!-- Imagemagick_convert_WORKFLOWINTERNALSOURCE_source_path -->
<g id="node3" class="node">
<ellipse fill="#8ed6f0" stroke="black" cx="50" cy="-133" rx="10" ry="10.5"/>
</g>
<!-- Imagemagick_convert_convert -->
<g id="node9" class="node">
<ellipse fill="#f28c55" stroke="black" cx="65" cy="-95" rx="10" ry="10.5"/>
</g>
<!-- Imagemagick_convert_WORKFLOWINTERNALSOURCE_source_path&#45;&gt;Imagemagick_convert_convert -->
<g id="edge10" class="edge">
<path fill="none" stroke="#000000" d="M50,-122C50,-118.461 50.997,-114.952 52.4769,-111.693"/>
<polygon fill="#000000" stroke="#000000" points="55.6302,-113.245 57.8514,-102.885 49.6548,-109.598 55.6302,-113.245"/>
</g>
<!-- Imagemagick_convert_WORKFLOWINTERNALSOURCE_compression -->
<g id="node4" class="node">
<ellipse fill="#8ed6f0" stroke="black" cx="26" cy="-133" rx="10" ry="10.5"/>
</g>
<!-- Imagemagick_convert_WORKFLOWINTERNALSOURCE_compression&#45;&gt;Imagemagick_convert_convert -->
<g id="edge14" class="edge">
<path fill="none" stroke="#000000" d="M26,-122C26,-111.487 35.6977,-104.745 45.4214,-100.628"/>
<polygon fill="#000000" stroke="#000000" points="46.865,-103.831 55.1587,-97.2382 44.5638,-97.2201 46.865,-103.831"/>
</g>
<!-- Imagemagick_convert_WORKFLOWINTERNALSINKCONTROL -->
<g id="node6" class="node">
<polygon fill="#66cd00" stroke="black" points="114,-21 121,-30 107,-30 114,-21"/>
</g>
<!-- Imagemagick_convert_WORKFLOWINTERNALSINK_status -->
<g id="node7" class="node">
<ellipse fill="#8ed6f0" stroke="black" cx="69" cy="-27" rx="10" ry="10.5"/>
</g>
<!-- Imagemagick_convert_WORKFLOWINTERNALSINK_target_path -->
<g id="node8" class="node">
<ellipse fill="#8ed6f0" stroke="black" cx="93" cy="-27" rx="10" ry="10.5"/>
</g>
<!-- Imagemagick_convert_Merge0 -->
<g id="node11" class="node">
<ellipse fill="#4f94cd" stroke="black" cx="65" cy="-61" rx="7" ry="7"/>
</g>
<!-- Imagemagick_convert_convert&#45;&gt;Imagemagick_convert_Merge0 -->
<g id="edge6" class="edge">
<path fill="none" stroke="#000000" d="M63.5938,-84.2422C63.5341,-82.3405 63.5029,-80.3177 63.5002,-78.2895"/>
<polygon fill="#000000" stroke="#000000" points="67.0052,-78.1295 63.7572,-68.0448 60.0074,-77.9539 67.0052,-78.1295"/>
</g>
<!-- Imagemagick_convert_convert&#45;&gt;Imagemagick_convert_Merge0 -->
<g id="edge12" class="edge">
<path fill="none" stroke="#000000" d="M66.4062,-84.2422C66.4659,-82.3405 66.4971,-80.3177 66.4998,-78.2895"/>
<polygon fill="#000000" stroke="#000000" points="69.9926,-77.9539 66.2428,-68.0448 62.9948,-78.1295 69.9926,-77.9539"/>
</g>
<!-- Imagemagick_convert_createTargetPath -->
<g id="node10" class="node">
<ellipse fill="#deb887" stroke="black" cx="104" cy="-133" rx="10" ry="10.5"/>
</g>
<!-- Imagemagick_convert_createTargetPath&#45;&gt;Imagemagick_convert_WORKFLOWINTERNALSINK_target_path -->
<g id="edge8" class="edge">
<path fill="none" stroke="#000000" d="M101.982,-122.503C99.1542,-106.949 94.2388,-76.5676 93.1974,-48.2911"/>
<polygon fill="#000000" stroke="#000000" points="96.6912,-47.931 93,-38 89.6925,-48.0653 96.6912,-47.931"/>
</g>
<!-- Imagemagick_convert_createTargetPath&#45;&gt;Imagemagick_convert_convert -->
<g id="edge4" class="edge">
<path fill="none" stroke="#000000" d="M97.271,-125.026C94.2319,-121.546 90.536,-117.475 87,-114 85.0472,-112.081 82.934,-110.122 80.8162,-108.227"/>
<polygon fill="#000000" stroke="#000000" points="82.8138,-105.327 72.9552,-101.447 78.242,-110.628 82.8138,-105.327"/>
</g>
<!-- Imagemagick_convert_Merge0&#45;&gt;Imagemagick_convert_WORKFLOWINTERNALSINK_status -->
<g id="edge16" class="edge">
<path fill="none" stroke="#000000" d="M66.8127,-54.2102C67.2427,-52.3612 67.6843,-50.2489 68.0571,-48.0228"/>
<polygon fill="#000000" stroke="#000000" points="71.5479,-48.2839 69,-38 64.5787,-47.6282 71.5479,-48.2839"/>
</g>
</g>
</svg>
