<?xml version="1.0" encoding="UTF-8" standalone="no"?>
<!DOCTYPE svg PUBLIC "-//W3C//DTD SVG 1.1//EN"
 "http://www.w3.org/Graphics/SVG/1.1/DTD/svg11.dtd">
<!-- Generated by graphviz version 2.28.0 (20110509.1545)
 -->
<!-- Title: Jpylyzer Pages: 1 -->
<svg width="155pt" height="214pt"
 viewBox="0.00 0.00 155.00 214.00" xmlns="http://www.w3.org/2000/svg" xmlns:xlink="http://www.w3.org/1999/xlink">
<g id="graph1" class="graph" transform="scale(1 1) rotate(0) translate(4 210)">
<title>Jpylyzer</title>
<polygon fill="#ffffff" stroke="#ffffff" points="-4,5 -4,-210 152,-210 152,5 -4,5"/>
<g id="graph2" class="cluster"><title>cluster_Jpylyzersinks</title>
<polygon fill="#ffffff" stroke="black" stroke-dasharray="1,5" points="8,-8 8,-46 139,-46 139,-8 8,-8"/>
</g>
<g id="graph3" class="cluster"><title>cluster_Jpylyzersources</title>
<polygon fill="#ffffff" stroke="black" stroke-dasharray="1,5" points="29,-160 29,-198 110,-198 110,-160 29,-160"/>
</g>
<!-- JpylyzerWORKFLOWINTERNALSINKCONTROL -->
<g id="node2" class="node"><title>JpylyzerWORKFLOWINTERNALSINKCONTROL</title>
<polygon fill="#66cd00" stroke="black" points="124,-21 131,-30 117,-30 124,-21"/>
</g>
<!-- JpylyzerWORKFLOWINTERNALSINK_jpylyzer_STDOUT -->
<g id="node3" class="node"><title>JpylyzerWORKFLOWINTERNALSINK_jpylyzer_STDOUT</title>
<ellipse fill="#8ed6f0" stroke="black" cx="27" cy="-27" rx="10.25" ry="10.5"/>
</g>
<!-- JpylyzerWORKFLOWINTERNALSINK_jpylyzer_STDERR -->
<g id="node4" class="node"><title>JpylyzerWORKFLOWINTERNALSINK_jpylyzer_STDERR</title>
<ellipse fill="#8ed6f0" stroke="black" cx="52" cy="-27" rx="10.25" ry="10.5"/>
</g>
<!-- JpylyzerWORKFLOWINTERNALSINK_image_height -->
<g id="node5" class="node"><title>JpylyzerWORKFLOWINTERNALSINK_image_height</title>
<ellipse fill="#8ed6f0" stroke="black" cx="77" cy="-27" rx="10.25" ry="10.5"/>
</g>
<!-- JpylyzerWORKFLOWINTERNALSINK_image_width -->
<g id="node6" class="node"><title>JpylyzerWORKFLOWINTERNALSINK_image_width</title>
<ellipse fill="#8ed6f0" stroke="black" cx="102" cy="-27" rx="10.25" ry="10.5"/>
</g>
<!-- JpylyzerWORKFLOWINTERNALSOURCECONTROL -->
<g id="node8" class="node"><title>JpylyzerWORKFLOWINTERNALSOURCECONTROL</title>
<polygon fill="#ff4040" stroke="black" points="95,-185 88,-176 102,-176 95,-185"/>
</g>
<!-- JpylyzerWORKFLOWINTERNALSOURCE_source_path -->
<g id="node9" class="node"><title>JpylyzerWORKFLOWINTERNALSOURCE_source_path</title>
<ellipse fill="#8ed6f0" stroke="black" cx="73" cy="-179" rx="10.25" ry="10.5"/>
</g>
<!-- Jpylyzerjpylyzer -->
<g id="node11" class="node"><title>Jpylyzerjpylyzer</title>
<ellipse fill="#f28c55" stroke="black" cx="61" cy="-141" rx="10.25" ry="10.5"/>
</g>
<!-- JpylyzerWORKFLOWINTERNALSOURCE_source_path&#45;&gt;Jpylyzerjpylyzer -->
<g id="edge20" class="edge"><title>JpylyzerWORKFLOWINTERNALSOURCE_source_path:s&#45;&gt;Jpylyzerjpylyzer:isource_path:n</title>
<path fill="none" stroke="#000000" d="M73,-167C73,-164.304 72.4258,-161.591 71.5286,-158.998"/>
<polygon fill="#000000" stroke="#000000" points="74.5824,-157.278 67,-149.878 68.3128,-160.391 74.5824,-157.278"/>
</g>
<!-- JpylyzerWORKFLOWINTERNALSOURCE_verbose -->
<g id="node10" class="node"><title>JpylyzerWORKFLOWINTERNALSOURCE_verbose</title>
<ellipse fill="#8ed6f0" stroke="black" cx="48" cy="-179" rx="10.25" ry="10.5"/>
</g>
<!-- JpylyzerWORKFLOWINTERNALSOURCE_verbose&#45;&gt;Jpylyzerjpylyzer -->
<g id="edge4" class="edge"><title>JpylyzerWORKFLOWINTERNALSOURCE_verbose:s&#45;&gt;Jpylyzerjpylyzer:iverbose:n</title>
<path fill="none" stroke="#000000" d="M48,-167C48,-163.973 48.7594,-160.949 49.9112,-158.103"/>
<polygon fill="#000000" stroke="#000000" points="52.9701,-159.804 54.8046,-149.369 46.8632,-156.382 52.9701,-159.804"/>
</g>
<!-- Jpylyzerjpylyzer&#45;&gt;JpylyzerWORKFLOWINTERNALSINK_jpylyzer_STDOUT -->
<g id="edge18" class="edge"><title>Jpylyzerjpylyzer:oSTDOUT:s&#45;&gt;JpylyzerWORKFLOWINTERNALSINK_jpylyzer_STDOUT:n</title>
<path fill="none" stroke="#000000" d="M56.1286,-131.674C47.6087,-116.378 30.6081,-82.3244 27.4954,-49.2211"/>
<polygon fill="#000000" stroke="#000000" points="30.9801,-48.8188 27,-39 23.9883,-49.1577 30.9801,-48.8188"/>
</g>
<!-- Jpylyzerjpylyzer&#45;&gt;JpylyzerWORKFLOWINTERNALSINK_jpylyzer_STDERR -->
<g id="edge8" class="edge"><title>Jpylyzerjpylyzer:oSTDERR:s&#45;&gt;JpylyzerWORKFLOWINTERNALSINK_jpylyzer_STDERR:n</title>
<path fill="none" stroke="#000000" d="M59.5938,-130.556C57.3097,-114.455 52.9646,-80.385 52.1378,-49.051"/>
<polygon fill="#000000" stroke="#000000" points="55.6368,-48.9511 52,-39 48.6375,-49.0471 55.6368,-48.9511"/>
</g>
<!-- Jpylyzerget_image_height -->
<g id="node12" class="node"><title>Jpylyzerget_image_height</title>
<ellipse fill="#e6ff5e" stroke="black" cx="71" cy="-103" rx="10.25" ry="10.5"/>
</g>
<!-- Jpylyzerjpylyzer&#45;&gt;Jpylyzerget_image_height -->
<g id="edge10" class="edge"><title>Jpylyzerjpylyzer:oSTDOUT:s&#45;&gt;Jpylyzerget_image_height:ixml_text:n</title>
<path fill="none" stroke="#000000" d="M63.6274,-130.541C64.2755,-128.208 64.9929,-125.626 65.7182,-123.015"/>
<polygon fill="#000000" stroke="#000000" points="69.1206,-123.843 68.4248,-113.271 62.3759,-121.969 69.1206,-123.843"/>
</g>
<!-- Jpylyzerget_image_width -->
<g id="node13" class="node"><title>Jpylyzerget_image_width</title>
<ellipse fill="#e6ff5e" stroke="black" cx="98" cy="-103" rx="10.25" ry="10.5"/>
</g>
<!-- Jpylyzerjpylyzer&#45;&gt;Jpylyzerget_image_width -->
<g id="edge14" class="edge"><title>Jpylyzerjpylyzer:oSTDOUT:s&#45;&gt;Jpylyzerget_image_width:ixml_text:n</title>
<path fill="none" stroke="#000000" d="M68.134,-133.059C72.536,-128.776 78.3398,-123.129 83.6597,-117.953"/>
<polygon fill="#000000" stroke="#000000" points="86.1614,-120.402 90.8879,-110.92 81.2799,-115.385 86.1614,-120.402"/>
</g>
<!-- Jpylyzermerge_height -->
<g id="node15" class="node"><title>Jpylyzermerge_height</title>
<ellipse fill="#d15fee" stroke="black" cx="76" cy="-65" rx="10.25" ry="10.5"/>
</g>
<!-- Jpylyzerget_image_height&#45;&gt;Jpylyzermerge_height -->
<g id="edge22" class="edge"><title>Jpylyzerget_image_height:onodelist:s&#45;&gt;Jpylyzermerge_height:istringlist:n</title>
<path fill="none" stroke="#000000" d="M72.3137,-92.5414C72.6099,-90.4087 72.935,-88.0677 73.2657,-85.687"/>
<polygon fill="#000000" stroke="#000000" points="76.7687,-85.9068 74.6777,-75.5204 69.8352,-84.9438 76.7687,-85.9068"/>
</g>
<!-- Jpylyzermerge_width -->
<g id="node14" class="node"><title>Jpylyzermerge_width</title>
<ellipse fill="#d15fee" stroke="black" cx="101" cy="-65" rx="10.25" ry="10.5"/>
</g>
<!-- Jpylyzerget_image_width&#45;&gt;Jpylyzermerge_width -->
<g id="edge16" class="edge"><title>Jpylyzerget_image_width:onodelist:s&#45;&gt;Jpylyzermerge_width:istringlist:n</title>
<path fill="none" stroke="#000000" d="M98.8198,-92.1628C98.9878,-90.1461 99.1703,-87.9559 99.3558,-85.73"/>
<polygon fill="#000000" stroke="#000000" points="102.859,-85.8326 100.202,-75.5764 95.8835,-85.2512 102.859,-85.8326"/>
</g>
<!-- Jpylyzermerge_width&#45;&gt;JpylyzerWORKFLOWINTERNALSINK_image_width -->
<g id="edge6" class="edge"><title>Jpylyzermerge_width:oconcatenated:s&#45;&gt;JpylyzerWORKFLOWINTERNALSINK_image_width:n</title>
<path fill="none" stroke="#000000" d="M101.57,-54.2682C101.647,-52.6787 101.722,-50.9732 101.787,-49.2147"/>
<polygon fill="#000000" stroke="#000000" points="105.291,-49.0707 102,-39 98.2925,-48.9249 105.291,-49.0707"/>
</g>
<!-- Jpylyzermerge_height&#45;&gt;JpylyzerWORKFLOWINTERNALSINK_image_height -->
<g id="edge12" class="edge"><title>Jpylyzermerge_height:oconcatenated:s&#45;&gt;JpylyzerWORKFLOWINTERNALSINK_image_height:n</title>
<path fill="none" stroke="#000000" d="M76.5701,-54.2682C76.6473,-52.6787 76.7222,-50.9732 76.7873,-49.2147"/>
<polygon fill="#000000" stroke="#000000" points="80.291,-49.0707 77,-39 73.2925,-48.9249 80.291,-49.0707"/>
</g>
</g>
</svg>
