<?xml version="1.0" encoding="UTF-8" standalone="no"?>
<!DOCTYPE svg PUBLIC "-//W3C//DTD SVG 1.1//EN"
 "http://www.w3.org/Graphics/SVG/1.1/DTD/svg11.dtd">
<!-- Generated by graphviz version 2.28.0 (20110509.1545)
 -->
<!-- Title: Object_QA___Imagemag Pages: 1 -->
<svg width="130pt" height="176pt"
 viewBox="0.00 0.00 130.00 176.00" xmlns="http://www.w3.org/2000/svg" xmlns:xlink="http://www.w3.org/1999/xlink">
<g id="graph1" class="graph" transform="scale(1 1) rotate(0) translate(4 172)">
<title>Object_QA___Imagemag</title>
<polygon fill="#ffffff" stroke="#ffffff" points="-4,5 -4,-172 127,-172 127,5 -4,5"/>
<g id="graph2" class="cluster"><title>cluster_Object_QA___Imagemagsources</title>
<polygon fill="#ffffff" stroke="black" stroke-dasharray="1,5" points="8,-122 8,-160 89,-160 89,-122 8,-122"/>
</g>
<g id="graph3" class="cluster"><title>cluster_Object_QA___Imagemagsinks</title>
<polygon fill="#ffffff" stroke="black" stroke-dasharray="1,5" points="8,-8 8,-46 114,-46 114,-8 8,-8"/>
</g>
<!-- Object_QA___ImagemagWORKFLOWINTERNALSOURCECONTROL -->
<g id="node2" class="node"><title>Object_QA___ImagemagWORKFLOWINTERNALSOURCECONTROL</title>
<polygon fill="#ff4040" stroke="black" points="74,-147 67,-138 81,-138 74,-147"/>
</g>
<!-- Object_QA___ImagemagWORKFLOWINTERNALSOURCE_right_object -->
<g id="node3" class="node"><title>Object_QA___ImagemagWORKFLOWINTERNALSOURCE_right_object</title>
<ellipse fill="#8ed6f0" stroke="black" cx="52" cy="-141" rx="10.25" ry="10.5"/>
</g>
<!-- Object_QA___Imagemagcompare -->
<g id="node10" class="node"><title>Object_QA___Imagemagcompare</title>
<ellipse fill="#f28c55" stroke="black" cx="52" cy="-103" rx="10.25" ry="10.5"/>
</g>
<!-- Object_QA___ImagemagWORKFLOWINTERNALSOURCE_right_object&#45;&gt;Object_QA___Imagemagcompare -->
<g id="edge8" class="edge"><title>Object_QA___ImagemagWORKFLOWINTERNALSOURCE_right_object:s&#45;&gt;Object_QA___Imagemagcompare:ifromURI:n</title>
<path fill="none" stroke="#000000" d="M52,-129C52,-127.427 52,-125.798 52,-124.16"/>
<polygon fill="#000000" stroke="#000000" points="55.5001,-123.735 52,-113.735 48.5001,-123.735 55.5001,-123.735"/>
</g>
<!-- Object_QA___ImagemagWORKFLOWINTERNALSOURCE_left_object -->
<g id="node4" class="node"><title>Object_QA___ImagemagWORKFLOWINTERNALSOURCE_left_object</title>
<ellipse fill="#8ed6f0" stroke="black" cx="27" cy="-141" rx="10.25" ry="10.5"/>
</g>
<!-- Object_QA___ImagemagWORKFLOWINTERNALSOURCE_left_object&#45;&gt;Object_QA___Imagemagcompare -->
<g id="edge12" class="edge"><title>Object_QA___ImagemagWORKFLOWINTERNALSOURCE_left_object:s&#45;&gt;Object_QA___Imagemagcompare:itoURI:n</title>
<path fill="none" stroke="#000000" d="M27,-129C27,-123.169 30.4428,-118.223 34.7731,-114.308"/>
<polygon fill="#000000" stroke="#000000" points="36.9018,-117.088 42.9744,-108.406 32.8132,-111.406 36.9018,-117.088"/>
</g>
<!-- Object_QA___ImagemagWORKFLOWINTERNALSINKCONTROL -->
<g id="node6" class="node"><title>Object_QA___ImagemagWORKFLOWINTERNALSINKCONTROL</title>
<polygon fill="#66cd00" stroke="black" points="99,-21 106,-30 92,-30 99,-21"/>
</g>
<!-- Object_QA___ImagemagWORKFLOWINTERNALSINK_mse -->
<g id="node7" class="node"><title>Object_QA___ImagemagWORKFLOWINTERNALSINK_mse</title>
<ellipse fill="#8ed6f0" stroke="black" cx="77" cy="-27" rx="10.25" ry="10.5"/>
</g>
<!-- Object_QA___ImagemagWORKFLOWINTERNALSINK_STDERR -->
<g id="node8" class="node"><title>Object_QA___ImagemagWORKFLOWINTERNALSINK_STDERR</title>
<ellipse fill="#8ed6f0" stroke="black" cx="27" cy="-27" rx="10.25" ry="10.5"/>
</g>
<!-- Object_QA___ImagemagWORKFLOWINTERNALSINK_STDOUT -->
<g id="node9" class="node"><title>Object_QA___ImagemagWORKFLOWINTERNALSINK_STDOUT</title>
<ellipse fill="#8ed6f0" stroke="black" cx="52" cy="-27" rx="10.25" ry="10.5"/>
</g>
<!-- Object_QA___Imagemagcompare&#45;&gt;Object_QA___ImagemagWORKFLOWINTERNALSINK_STDERR -->
<g id="edge16" class="edge"><title>Object_QA___Imagemagcompare:oSTDERR:s&#45;&gt;Object_QA___ImagemagWORKFLOWINTERNALSINK_STDERR:n</title>
<path fill="none" stroke="#000000" d="M46.4517,-93.8517C40.2948,-84.1297 30.8388,-66.9684 27.9018,-49.3637"/>
<polygon fill="#000000" stroke="#000000" points="31.3537,-48.6589 27,-39 24.3801,-49.2658 31.3537,-48.6589"/>
</g>
<!-- Object_QA___Imagemagcompare&#45;&gt;Object_QA___ImagemagWORKFLOWINTERNALSINK_STDOUT -->
<g id="edge14" class="edge"><title>Object_QA___Imagemagcompare:oSTDOUT:s&#45;&gt;Object_QA___ImagemagWORKFLOWINTERNALSINK_STDOUT:n</title>
<path fill="none" stroke="#000000" d="M52,-92.1788C52,-82.0119 52,-65.3996 52,-49.3733"/>
<polygon fill="#000000" stroke="#000000" points="55.5001,-49 52,-39 48.5001,-49 55.5001,-49"/>
</g>
<!-- Object_QA___ImagemagExtractMSE -->
<g id="node11" class="node"><title>Object_QA___ImagemagExtractMSE</title>
<ellipse fill="#deb887" stroke="black" cx="73" cy="-65" rx="10.25" ry="10.5"/>
</g>
<!-- Object_QA___Imagemagcompare&#45;&gt;Object_QA___ImagemagExtractMSE -->
<g id="edge10" class="edge"><title>Object_QA___Imagemagcompare:oSTDERR:s&#45;&gt;Object_QA___ImagemagExtractMSE:iinput:n</title>
<path fill="none" stroke="#000000" d="M56.8706,-93.6504C58.7259,-90.4698 60.9142,-86.7185 63.0703,-83.0224"/>
<polygon fill="#000000" stroke="#000000" points="66.1403,-84.7057 68.1558,-74.3043 60.0938,-81.1786 66.1403,-84.7057"/>
</g>
<!-- Object_QA___ImagemagExtractMSE&#45;&gt;Object_QA___ImagemagWORKFLOWINTERNALSINK_mse -->
<g id="edge6" class="edge"><title>Object_QA___ImagemagExtractMSE:omse:s&#45;&gt;Object_QA___ImagemagWORKFLOWINTERNALSINK_mse:n</title>
<path fill="none" stroke="#000000" d="M75.2804,-54.322C75.5892,-52.7366 75.8889,-51.0331 76.1493,-49.273"/>
<polygon fill="#000000" stroke="#000000" points="79.6627,-49.2548 77,-39 72.6865,-48.677 79.6627,-49.2548"/>
</g>
<!-- Object_QA___Imagemagdifference_value -->
<g id="node12" class="node"><title>Object_QA___Imagemagdifference_value</title>
<ellipse fill="#b0c4de" stroke="black" cx="108" cy="-141" rx="10.25" ry="10.5"/>
</g>
<!-- Object_QA___Imagemagdifference_value&#45;&gt;Object_QA___Imagemagcompare -->
<g id="edge4" class="edge"><title>Object_QA___Imagemagdifference_value:ovalue:s&#45;&gt;Object_QA___Imagemagcompare:idifference:n</title>
<path fill="none" stroke="#000000" d="M101.498,-132.388C98.2792,-128.926 94.1905,-124.953 90,-122 84.1262,-117.861 77.151,-114.243 70.79,-111.358"/>
<polygon fill="#000000" stroke="#000000" points="72.1202,-108.121 61.5461,-107.458 69.3991,-114.57 72.1202,-108.121"/>
</g>
</g>
</svg>
