<?xml version="1.0" encoding="UTF-8" standalone="no"?>
<!DOCTYPE svg PUBLIC "-//W3C//DTD SVG 1.1//EN"
 "http://www.w3.org/Graphics/SVG/1.1/DTD/svg11.dtd">
<!-- Generated by graphviz version 2.28.0 (20110509.1545)
 -->
<!-- Title: Imagemagick_convert_ Pages: 1 -->
<svg width="149pt" height="168pt"
 viewBox="0.00 0.00 149.00 168.00" xmlns="http://www.w3.org/2000/svg" xmlns:xlink="http://www.w3.org/1999/xlink">
<g id="graph1" class="graph" transform="scale(1 1) rotate(0) translate(4 164)">
<title>Imagemagick_convert_</title>
<polygon fill="#ffffff" stroke="#ffffff" points="-4,5 -4,-164 146,-164 146,5 -4,5"/>
<g id="graph2" class="cluster"><title>cluster_Imagemagick_convert_sources</title>
<polygon fill="#ffffff" stroke="black" stroke-dasharray="1,5" points="8,-114 8,-152 89,-152 89,-114 8,-114"/>
</g>
<g id="graph3" class="cluster"><title>cluster_Imagemagick_convert_sinks</title>
<polygon fill="#ffffff" stroke="black" stroke-dasharray="1,5" points="52,-8 52,-46 133,-46 133,-8 52,-8"/>
</g>
<!-- Imagemagick_convert_WORKFLOWINTERNALSOURCECONTROL -->
<g id="node2" class="node"><title>Imagemagick_convert_WORKFLOWINTERNALSOURCECONTROL</title>
<polygon fill="#ff4040" stroke="black" points="74,-139 67,-130 81,-130 74,-139"/>
</g>
<!-- Imagemagick_convert_WORKFLOWINTERNALSOURCE_source_path -->
<g id="node3" class="node"><title>Imagemagick_convert_WORKFLOWINTERNALSOURCE_source_path</title>
<ellipse fill="#8ed6f0" stroke="black" cx="52" cy="-133" rx="10.25" ry="10.5"/>
</g>
<!-- Imagemagick_convert_convert -->
<g id="node9" class="node"><title>Imagemagick_convert_convert</title>
<ellipse fill="#f28c55" stroke="black" cx="67" cy="-95" rx="10.25" ry="10.5"/>
</g>
<!-- Imagemagick_convert_WORKFLOWINTERNALSOURCE_source_path&#45;&gt;Imagemagick_convert_convert -->
<g id="edge10" class="edge"><title>Imagemagick_convert_WORKFLOWINTERNALSOURCE_source_path:s&#45;&gt;Imagemagick_convert_convert:ifrom_uri:n</title>
<path fill="none" stroke="#000000" d="M52,-121C52,-117.764 52.9357,-114.585 54.3396,-111.636"/>
<polygon fill="#000000" stroke="#000000" points="57.3052,-113.496 59.8514,-103.212 51.4476,-109.663 57.3052,-113.496"/>
</g>
<!-- Imagemagick_convert_WORKFLOWINTERNALSOURCE_compression -->
<g id="node4" class="node"><title>Imagemagick_convert_WORKFLOWINTERNALSOURCE_compression</title>
<ellipse fill="#8ed6f0" stroke="black" cx="27" cy="-133" rx="10.25" ry="10.5"/>
</g>
<!-- Imagemagick_convert_WORKFLOWINTERNALSOURCE_compression&#45;&gt;Imagemagick_convert_convert -->
<g id="edge14" class="edge"><title>Imagemagick_convert_WORKFLOWINTERNALSOURCE_compression:s&#45;&gt;Imagemagick_convert_convert:icompression:n</title>
<path fill="none" stroke="#000000" d="M27,-121C27,-110.436 37.1569,-104.17 47.2344,-100.554"/>
<polygon fill="#000000" stroke="#000000" points="48.271,-103.897 56.9063,-97.759 46.3277,-97.1726 48.271,-103.897"/>
</g>
<!-- Imagemagick_convert_WORKFLOWINTERNALSINKCONTROL -->
<g id="node6" class="node"><title>Imagemagick_convert_WORKFLOWINTERNALSINKCONTROL</title>
<polygon fill="#66cd00" stroke="black" points="118,-21 125,-30 111,-30 118,-21"/>
</g>
<!-- Imagemagick_convert_WORKFLOWINTERNALSINK_status -->
<g id="node7" class="node"><title>Imagemagick_convert_WORKFLOWINTERNALSINK_status</title>
<ellipse fill="#8ed6f0" stroke="black" cx="71" cy="-27" rx="10.25" ry="10.5"/>
</g>
<!-- Imagemagick_convert_WORKFLOWINTERNALSINK_target_path -->
<g id="node8" class="node"><title>Imagemagick_convert_WORKFLOWINTERNALSINK_target_path</title>
<ellipse fill="#8ed6f0" stroke="black" cx="96" cy="-27" rx="10.25" ry="10.5"/>
</g>
<!-- Imagemagick_convert_Merge0 -->
<g id="node11" class="node"><title>Imagemagick_convert_Merge0</title>
<ellipse fill="#4f94cd" stroke="black" cx="67" cy="-61" rx="7" ry="7"/>
</g>
<!-- Imagemagick_convert_convert&#45;&gt;Imagemagick_convert_Merge0 -->
<g id="edge6" class="edge"><title>Imagemagick_convert_convert:oSTDERR:s&#45;&gt;Imagemagick_convert_Merge0:iSTDERRToMerge0_input0:n</title>
<path fill="none" stroke="#000000" d="M65.6187,-84.572C65.5426,-82.5809 65.5032,-80.4255 65.5002,-78.2637"/>
<polygon fill="#000000" stroke="#000000" points="69.0025,-78.228 65.7897,-68.1321 62.0054,-78.028 69.0025,-78.228"/>
</g>
<!-- Imagemagick_convert_convert&#45;&gt;Imagemagick_convert_Merge0 -->
<g id="edge12" class="edge"><title>Imagemagick_convert_convert:oSTDOUT:s&#45;&gt;Imagemagick_convert_Merge0:iSTDOUTToMerge0_input0:n</title>
<path fill="none" stroke="#000000" d="M68.3813,-84.572C68.4574,-82.5809 68.4968,-80.4255 68.4998,-78.2637"/>
<polygon fill="#000000" stroke="#000000" points="71.9946,-78.028 68.2103,-68.1321 64.9975,-78.228 71.9946,-78.028"/>
</g>
<!-- Imagemagick_convert_createTargetPath -->
<g id="node10" class="node"><title>Imagemagick_convert_createTargetPath</title>
<ellipse fill="#deb887" stroke="black" cx="108" cy="-133" rx="10.25" ry="10.5"/>
</g>
<!-- Imagemagick_convert_createTargetPath&#45;&gt;Imagemagick_convert_WORKFLOWINTERNALSINK_target_path -->
<g id="edge8" class="edge"><title>Imagemagick_convert_createTargetPath:otargetPath:s&#45;&gt;Imagemagick_convert_WORKFLOWINTERNALSINK_target_path:n</title>
<path fill="none" stroke="#000000" d="M105.964,-122.546C102.915,-107.628 97.3935,-77.419 96.2221,-49.2526"/>
<polygon fill="#000000" stroke="#000000" points="99.7159,-48.9218 96,-39 92.7175,-49.0735 99.7159,-48.9218"/>
</g>
<!-- Imagemagick_convert_createTargetPath&#45;&gt;Imagemagick_convert_convert -->
<g id="edge4" class="edge"><title>Imagemagick_convert_createTargetPath:otargetPath:s&#45;&gt;Imagemagick_convert_convert:ito_uri:n</title>
<path fill="none" stroke="#000000" d="M101.182,-124.787C97.8938,-121.413 93.8381,-117.399 90,-114 87.7223,-111.983 85.2488,-109.923 82.7965,-107.95"/>
<polygon fill="#000000" stroke="#000000" points="84.8977,-105.151 74.8556,-101.773 80.5995,-110.676 84.8977,-105.151"/>
</g>
<!-- Imagemagick_convert_Merge0&#45;&gt;Imagemagick_convert_WORKFLOWINTERNALSINK_status -->
<g id="edge16" class="edge"><title>Imagemagick_convert_Merge0:oMerge0_output:s&#45;&gt;Imagemagick_convert_WORKFLOWINTERNALSINK_status:n</title>
<path fill="none" stroke="#000000" d="M68.7196,-54.1728C69.0922,-52.7347 69.4782,-51.1064 69.8242,-49.3775"/>
<polygon fill="#000000" stroke="#000000" points="73.3518,-49.3305 71,-39 66.3963,-48.5424 73.3518,-49.3305"/>
</g>
</g>
</svg>
