<?xml version="1.0" encoding="UTF-8" standalone="no"?>
<!DOCTYPE svg PUBLIC "-//W3C//DTD SVG 1.1//EN"
 "http://www.w3.org/Graphics/SVG/1.1/DTD/svg11.dtd">
<!-- Generated by graphviz version 2.28.0 (20110509.1545)
 -->
<!-- Title: Graphicsmagick_conve Pages: 1 -->
<svg width="130pt" height="206pt"
 viewBox="0.00 0.00 130.00 206.00" xmlns="http://www.w3.org/2000/svg" xmlns:xlink="http://www.w3.org/1999/xlink">
<g id="graph1" class="graph" transform="scale(1 1) rotate(0) translate(4 202)">
<title>Graphicsmagick_conve</title>
<polygon fill="#ffffff" stroke="#ffffff" points="-4,5 -4,-202 127,-202 127,5 -4,5"/>
<g id="graph2" class="cluster"><title>cluster_Graphicsmagick_convesinks</title>
<polygon fill="#ffffff" stroke="black" stroke-dasharray="1,5" points="33,-8 33,-46 114,-46 114,-8 33,-8"/>
</g>
<g id="graph3" class="cluster"><title>cluster_Graphicsmagick_convesources</title>
<polygon fill="#ffffff" stroke="black" stroke-dasharray="1,5" points="8,-152 8,-190 114,-190 114,-152 8,-152"/>
</g>
<!-- Graphicsmagick_conveWORKFLOWINTERNALSINKCONTROL -->
<g id="node2" class="node"><title>Graphicsmagick_conveWORKFLOWINTERNALSINKCONTROL</title>
<polygon fill="#66cd00" stroke="black" points="99,-21 106,-30 92,-30 99,-21"/>
</g>
<!-- Graphicsmagick_conveWORKFLOWINTERNALSINK_status -->
<g id="node3" class="node"><title>Graphicsmagick_conveWORKFLOWINTERNALSINK_status</title>
<ellipse fill="#8ed6f0" stroke="black" cx="52" cy="-27" rx="10.25" ry="10.5"/>
</g>
<!-- Graphicsmagick_conveWORKFLOWINTERNALSINK_target_path -->
<g id="node4" class="node"><title>Graphicsmagick_conveWORKFLOWINTERNALSINK_target_path</title>
<ellipse fill="#8ed6f0" stroke="black" cx="77" cy="-27" rx="10.25" ry="10.5"/>
</g>
<!-- Graphicsmagick_conveWORKFLOWINTERNALSOURCECONTROL -->
<g id="node6" class="node"><title>Graphicsmagick_conveWORKFLOWINTERNALSOURCECONTROL</title>
<polygon fill="#ff4040" stroke="black" points="99,-177 92,-168 106,-168 99,-177"/>
</g>
<!-- Graphicsmagick_conveWORKFLOWINTERNALSOURCE_source_path -->
<g id="node7" class="node"><title>Graphicsmagick_conveWORKFLOWINTERNALSOURCE_source_path</title>
<ellipse fill="#8ed6f0" stroke="black" cx="27" cy="-171" rx="10.25" ry="10.5"/>
</g>
<!-- Graphicsmagick_conveconvert -->
<g id="node10" class="node"><title>Graphicsmagick_conveconvert</title>
<ellipse fill="#f28c55" stroke="black" cx="52" cy="-95" rx="10.25" ry="10.5"/>
</g>
<!-- Graphicsmagick_conveWORKFLOWINTERNALSOURCE_source_path&#45;&gt;Graphicsmagick_conveconvert -->
<g id="edge14" class="edge"><title>Graphicsmagick_conveWORKFLOWINTERNALSOURCE_source_path:s&#45;&gt;Graphicsmagick_conveconvert:isource_path:n</title>
<path fill="none" stroke="#000000" d="M27,-159C27,-142.473 34.5253,-125.117 41.3184,-112.817"/>
<polygon fill="#000000" stroke="#000000" points="44.3678,-114.536 46.4517,-104.148 38.3446,-110.969 44.3678,-114.536"/>
</g>
<!-- Graphicsmagick_conveWORKFLOWINTERNALSOURCE_compression -->
<g id="node8" class="node"><title>Graphicsmagick_conveWORKFLOWINTERNALSOURCE_compression</title>
<ellipse fill="#8ed6f0" stroke="black" cx="52" cy="-171" rx="10.25" ry="10.5"/>
</g>
<!-- Graphicsmagick_conveWORKFLOWINTERNALSOURCE_compression&#45;&gt;Graphicsmagick_conveconvert -->
<g id="edge8" class="edge"><title>Graphicsmagick_conveWORKFLOWINTERNALSOURCE_compression:s&#45;&gt;Graphicsmagick_conveconvert:icompression:n</title>
<path fill="none" stroke="#000000" d="M52,-159C52,-144.597 52,-128.341 52,-115.95"/>
<polygon fill="#000000" stroke="#000000" points="55.5001,-115.821 52,-105.821 48.5001,-115.821 55.5001,-115.821"/>
</g>
<!-- Graphicsmagick_conveWORKFLOWINTERNALSOURCE_working_directory -->
<g id="node9" class="node"><title>Graphicsmagick_conveWORKFLOWINTERNALSOURCE_working_directory</title>
<ellipse fill="#8ed6f0" stroke="black" cx="77" cy="-171" rx="10.25" ry="10.5"/>
</g>
<!-- Graphicsmagick_convecreateTargetPath -->
<g id="node11" class="node"><title>Graphicsmagick_convecreateTargetPath</title>
<ellipse fill="#deb887" stroke="black" cx="77" cy="-133" rx="10.25" ry="10.5"/>
</g>
<!-- Graphicsmagick_conveWORKFLOWINTERNALSOURCE_working_directory&#45;&gt;Graphicsmagick_convecreateTargetPath -->
<g id="edge10" class="edge"><title>Graphicsmagick_conveWORKFLOWINTERNALSOURCE_working_directory:s&#45;&gt;Graphicsmagick_convecreateTargetPath:iworkingDirectory:n</title>
<path fill="none" stroke="#000000" d="M77,-159C77,-157.427 77,-155.798 77,-154.16"/>
<polygon fill="#000000" stroke="#000000" points="80.5001,-153.735 77,-143.735 73.5001,-153.735 80.5001,-153.735"/>
</g>
<!-- Graphicsmagick_conveMerge0 -->
<g id="node12" class="node"><title>Graphicsmagick_conveMerge0</title>
<ellipse fill="#4f94cd" stroke="black" cx="52" cy="-61" rx="7" ry="7"/>
</g>
<!-- Graphicsmagick_conveconvert&#45;&gt;Graphicsmagick_conveMerge0 -->
<g id="edge4" class="edge"><title>Graphicsmagick_conveconvert:oSTDERR:s&#45;&gt;Graphicsmagick_conveMerge0:iSTDERRToMerge0_input0:n</title>
<path fill="none" stroke="#000000" d="M50.6187,-84.572C50.5426,-82.5809 50.5032,-80.4255 50.5002,-78.2637"/>
<polygon fill="#000000" stroke="#000000" points="54.0025,-78.228 50.7897,-68.1321 47.0054,-78.028 54.0025,-78.228"/>
</g>
<!-- Graphicsmagick_conveconvert&#45;&gt;Graphicsmagick_conveMerge0 -->
<g id="edge16" class="edge"><title>Graphicsmagick_conveconvert:oSTDOUT:s&#45;&gt;Graphicsmagick_conveMerge0:iSTDOUTToMerge0_input0:n</title>
<path fill="none" stroke="#000000" d="M53.3813,-84.572C53.4574,-82.5809 53.4968,-80.4255 53.4998,-78.2637"/>
<polygon fill="#000000" stroke="#000000" points="56.9946,-78.028 53.2103,-68.1321 49.9975,-78.228 56.9946,-78.028"/>
</g>
<!-- Graphicsmagick_convecreateTargetPath&#45;&gt;Graphicsmagick_conveWORKFLOWINTERNALSINK_target_path -->
<g id="edge6" class="edge"><title>Graphicsmagick_convecreateTargetPath:otargetPath:s&#45;&gt;Graphicsmagick_conveWORKFLOWINTERNALSINK_target_path:n</title>
<path fill="none" stroke="#000000" d="M77,-122.494C77,-107.504 77,-77.1919 77,-49.1824"/>
<polygon fill="#000000" stroke="#000000" points="80.5001,-49 77,-39 73.5001,-49 80.5001,-49"/>
</g>
<!-- Graphicsmagick_convecreateTargetPath&#45;&gt;Graphicsmagick_conveconvert -->
<g id="edge12" class="edge"><title>Graphicsmagick_convecreateTargetPath:otargetPath:s&#45;&gt;Graphicsmagick_conveconvert:itarget_path:n</title>
<path fill="none" stroke="#000000" d="M71.4517,-124.01C69.0566,-120.561 66.1621,-116.393 63.3465,-112.339"/>
<polygon fill="#000000" stroke="#000000" points="66.1116,-110.185 57.5328,-103.967 60.362,-114.177 66.1116,-110.185"/>
</g>
<!-- Graphicsmagick_conveMerge0&#45;&gt;Graphicsmagick_conveWORKFLOWINTERNALSINK_status -->
<g id="edge18" class="edge"><title>Graphicsmagick_conveMerge0:oMerge0_output:s&#45;&gt;Graphicsmagick_conveWORKFLOWINTERNALSINK_status:n</title>
<path fill="none" stroke="#000000" d="M52,-53.7515C52,-52.3159 52,-50.7101 52,-49.0193"/>
<polygon fill="#000000" stroke="#000000" points="55.5001,-49 52,-39 48.5001,-49 55.5001,-49"/>
</g>
</g>
</svg>
