<?xml version="1.0" encoding="UTF-8" standalone="no"?>
<!DOCTYPE svg PUBLIC "-//W3C//DTD SVG 1.1//EN"
 "http://www.w3.org/Graphics/SVG/1.1/DTD/svg11.dtd">
<!-- Generated by graphviz version 2.28.0 (20110509.1545)
 -->
<!-- Title: Graphicsmagick_conve Pages: 1 -->
<svg width="134pt" height="168pt"
 viewBox="0.00 0.00 134.00 168.00" xmlns="http://www.w3.org/2000/svg" xmlns:xlink="http://www.w3.org/1999/xlink">
<g id="graph1" class="graph" transform="scale(1 1) rotate(0) translate(4 164)">
<title>Graphicsmagick_conve</title>
<polygon fill="#ffffff" stroke="#ffffff" points="-4,5 -4,-164 131,-164 131,5 -4,5"/>
<g id="graph2" class="cluster"><title>cluster_Graphicsmagick_convesinks</title>
<polygon fill="#ffffff" stroke="black" stroke-dasharray="1,5" points="8,-8 8,-46 89,-46 89,-8 8,-8"/>
</g>
<g id="graph3" class="cluster"><title>cluster_Graphicsmagick_convesources</title>
<polygon fill="#ffffff" stroke="black" stroke-dasharray="1,5" points="37,-114 37,-152 118,-152 118,-114 37,-114"/>
</g>
<!-- Graphicsmagick_conveWORKFLOWINTERNALSINKCONTROL -->
<g id="node2" class="node"><title>Graphicsmagick_conveWORKFLOWINTERNALSINKCONTROL</title>
<polygon fill="#66cd00" stroke="black" points="74,-21 81,-30 67,-30 74,-21"/>
</g>
<!-- Graphicsmagick_conveWORKFLOWINTERNALSINK_status -->
<g id="node3" class="node"><title>Graphicsmagick_conveWORKFLOWINTERNALSINK_status</title>
<ellipse fill="#8ed6f0" stroke="black" cx="52" cy="-27" rx="10.25" ry="10.5"/>
</g>
<!-- Graphicsmagick_conveWORKFLOWINTERNALSINK_target_path -->
<g id="node4" class="node"><title>Graphicsmagick_conveWORKFLOWINTERNALSINK_target_path</title>
<ellipse fill="#8ed6f0" stroke="black" cx="27" cy="-27" rx="10.25" ry="10.5"/>
</g>
<!-- Graphicsmagick_conveWORKFLOWINTERNALSOURCECONTROL -->
<g id="node6" class="node"><title>Graphicsmagick_conveWORKFLOWINTERNALSOURCECONTROL</title>
<polygon fill="#ff4040" stroke="black" points="103,-139 96,-130 110,-130 103,-139"/>
</g>
<!-- Graphicsmagick_conveWORKFLOWINTERNALSOURCE_source_path -->
<g id="node7" class="node"><title>Graphicsmagick_conveWORKFLOWINTERNALSOURCE_source_path</title>
<ellipse fill="#8ed6f0" stroke="black" cx="81" cy="-133" rx="10.25" ry="10.5"/>
</g>
<!-- Graphicsmagick_conveconvert -->
<g id="node9" class="node"><title>Graphicsmagick_conveconvert</title>
<ellipse fill="#f28c55" stroke="black" cx="54" cy="-95" rx="10.25" ry="10.5"/>
</g>
<!-- Graphicsmagick_conveWORKFLOWINTERNALSOURCE_source_path&#45;&gt;Graphicsmagick_conveconvert -->
<g id="edge14" class="edge"><title>Graphicsmagick_conveWORKFLOWINTERNALSOURCE_source_path:s&#45;&gt;Graphicsmagick_conveconvert:ifrom_uri:n</title>
<path fill="none" stroke="#000000" d="M81,-121C81,-114.616 76.8853,-109.406 71.8684,-105.427"/>
<polygon fill="#000000" stroke="#000000" points="73.4623,-102.294 63.141,-99.9019 69.7181,-108.208 73.4623,-102.294"/>
</g>
<!-- Graphicsmagick_conveWORKFLOWINTERNALSOURCE_compression -->
<g id="node8" class="node"><title>Graphicsmagick_conveWORKFLOWINTERNALSOURCE_compression</title>
<ellipse fill="#8ed6f0" stroke="black" cx="56" cy="-133" rx="10.25" ry="10.5"/>
</g>
<!-- Graphicsmagick_conveWORKFLOWINTERNALSOURCE_compression&#45;&gt;Graphicsmagick_conveconvert -->
<g id="edge8" class="edge"><title>Graphicsmagick_conveWORKFLOWINTERNALSOURCE_compression:s&#45;&gt;Graphicsmagick_conveconvert:icompression:n</title>
<path fill="none" stroke="#000000" d="M56,-121C56,-119.422 55.9599,-117.789 55.8911,-116.149"/>
<polygon fill="#000000" stroke="#000000" points="59.3494,-115.444 55.1402,-105.721 52.3675,-115.947 59.3494,-115.444"/>
</g>
<!-- Graphicsmagick_conveMerge0 -->
<g id="node11" class="node"><title>Graphicsmagick_conveMerge0</title>
<ellipse fill="#4f94cd" stroke="black" cx="54" cy="-61" rx="7" ry="7"/>
</g>
<!-- Graphicsmagick_conveconvert&#45;&gt;Graphicsmagick_conveMerge0 -->
<g id="edge4" class="edge"><title>Graphicsmagick_conveconvert:oSTDERR:s&#45;&gt;Graphicsmagick_conveMerge0:iSTDERRToMerge0_input0:n</title>
<path fill="none" stroke="#000000" d="M52.6187,-84.572C52.5426,-82.5809 52.5032,-80.4255 52.5002,-78.2637"/>
<polygon fill="#000000" stroke="#000000" points="56.0025,-78.228 52.7897,-68.1321 49.0054,-78.028 56.0025,-78.228"/>
</g>
<!-- Graphicsmagick_conveconvert&#45;&gt;Graphicsmagick_conveMerge0 -->
<g id="edge12" class="edge"><title>Graphicsmagick_conveconvert:oSTDOUT:s&#45;&gt;Graphicsmagick_conveMerge0:iSTDOUTToMerge0_input0:n</title>
<path fill="none" stroke="#000000" d="M55.3813,-84.572C55.4574,-82.5809 55.4968,-80.4255 55.4998,-78.2637"/>
<polygon fill="#000000" stroke="#000000" points="58.9946,-78.028 55.2103,-68.1321 51.9975,-78.228 58.9946,-78.028"/>
</g>
<!-- Graphicsmagick_convecreateTargetPath -->
<g id="node10" class="node"><title>Graphicsmagick_convecreateTargetPath</title>
<ellipse fill="#deb887" stroke="black" cx="18" cy="-133" rx="10.25" ry="10.5"/>
</g>
<!-- Graphicsmagick_convecreateTargetPath&#45;&gt;Graphicsmagick_conveWORKFLOWINTERNALSINK_target_path -->
<g id="edge6" class="edge"><title>Graphicsmagick_convecreateTargetPath:otargetPath:s&#45;&gt;Graphicsmagick_conveWORKFLOWINTERNALSINK_target_path:n</title>
<path fill="none" stroke="#000000" d="M19.5267,-122.524C21.8136,-107.574 25.9549,-77.3199 26.8334,-49.222"/>
<polygon fill="#000000" stroke="#000000" points="30.3365,-49.0557 27,-39 23.3374,-48.9416 30.3365,-49.0557"/>
</g>
<!-- Graphicsmagick_convecreateTargetPath&#45;&gt;Graphicsmagick_conveconvert -->
<g id="edge10" class="edge"><title>Graphicsmagick_convecreateTargetPath:otargetPath:s&#45;&gt;Graphicsmagick_conveconvert:ito_uri:n</title>
<path fill="none" stroke="#000000" d="M24.9412,-125.059C29.1246,-120.875 34.6093,-115.391 39.6854,-110.315"/>
<polygon fill="#000000" stroke="#000000" points="42.4839,-112.466 47.0801,-102.92 37.5342,-107.516 42.4839,-112.466"/>
</g>
<!-- Graphicsmagick_conveMerge0&#45;&gt;Graphicsmagick_conveWORKFLOWINTERNALSINK_status -->
<g id="edge16" class="edge"><title>Graphicsmagick_conveMerge0:oMerge0_output:s&#45;&gt;Graphicsmagick_conveWORKFLOWINTERNALSINK_status:n</title>
<path fill="none" stroke="#000000" d="M53.0936,-53.7663C52.9117,-52.3328 52.7257,-50.7286 52.5598,-49.038"/>
<polygon fill="#000000" stroke="#000000" points="56.0514,-48.7896 52,-39 49.0623,-49.1794 56.0514,-48.7896"/>
</g>
</g>
</svg>
