<?xml version="1.0" encoding="UTF-8" standalone="no"?>
<!DOCTYPE svg PUBLIC "-//W3C//DTD SVG 1.1//EN"
 "http://www.w3.org/Graphics/SVG/1.1/DTD/svg11.dtd">
<!-- Generated by graphviz version 2.28.0 (20110509.1545)
 -->
<!-- Title: Preservation_Workflo Pages: 1 -->
<svg width="416pt" height="590pt"
 viewBox="0.00 0.00 416.00 590.00" xmlns="http://www.w3.org/2000/svg" xmlns:xlink="http://www.w3.org/1999/xlink">
<g id="graph1" class="graph" transform="scale(1 1) rotate(0) translate(4 586)">
<title>Preservation_Workflo</title>
<polygon fill="#ffffff" stroke="#ffffff" points="-4,5 -4,-586 413,-586 413,5 -4,5"/>
<g id="graph2" class="cluster"><title>cluster_Preservation_Workflomigration</title>
<polygon fill="#f0f8ff" stroke="black" points="71,-368 71,-528 198,-528 198,-368 71,-368"/>
</g>
<g id="graph3" class="cluster"><title>cluster_Preservation_Workflomigrationsinks</title>
<polygon fill="#ffffff" stroke="black" stroke-dasharray="1,5" points="79,-376 79,-414 160,-414 160,-376 79,-376"/>
</g>
<g id="graph4" class="cluster"><title>cluster_Preservation_Workflomigrationsources</title>
<polygon fill="#ffffff" stroke="black" stroke-dasharray="1,5" points="109,-482 109,-520 190,-520 190,-482 109,-482"/>
</g>
<g id="graph5" class="cluster"><title>cluster_Preservation_WorkfloQA_mse</title>
<polygon fill="#f0f8ff" stroke="black" points="143,-192 143,-360 270,-360 270,-192 143,-192"/>
</g>
<g id="graph6" class="cluster"><title>cluster_Preservation_WorkfloQA_msesinks</title>
<polygon fill="#ffffff" stroke="black" stroke-dasharray="1,5" points="152,-200 152,-238 258,-238 258,-200 152,-200"/>
</g>
<g id="graph7" class="cluster"><title>cluster_Preservation_WorkfloQA_msesources</title>
<polygon fill="#ffffff" stroke="black" stroke-dasharray="1,5" points="181,-314 181,-352 262,-352 262,-314 181,-314"/>
</g>
<g id="graph8" class="cluster"><title>cluster_Preservation_WorkfloCC_source</title>
<polygon fill="#f0f8ff" stroke="black" points="278,-192 278,-360 400,-360 400,-192 278,-192"/>
</g>
<g id="graph9" class="cluster"><title>cluster_Preservation_WorkfloCC_sourcesources</title>
<polygon fill="#ffffff" stroke="black" stroke-dasharray="1,5" points="290,-314 290,-352 346,-352 346,-314 290,-314"/>
</g>
<g id="graph10" class="cluster"><title>cluster_Preservation_WorkfloCC_sourcesinks</title>
<polygon fill="#ffffff" stroke="black" stroke-dasharray="1,5" points="286,-200 286,-238 392,-238 392,-200 286,-200"/>
</g>
<g id="graph11" class="cluster"><title>cluster_Preservation_WorkfloCC_target</title>
<polygon fill="#f0f8ff" stroke="black" points="13,-192 13,-360 135,-360 135,-192 13,-192"/>
</g>
<g id="graph12" class="cluster"><title>cluster_Preservation_WorkfloCC_targetsources</title>
<polygon fill="#ffffff" stroke="black" stroke-dasharray="1,5" points="63,-314 63,-352 119,-352 119,-314 63,-314"/>
</g>
<g id="graph13" class="cluster"><title>cluster_Preservation_WorkfloCC_targetsinks</title>
<polygon fill="#ffffff" stroke="black" stroke-dasharray="1,5" points="21,-200 21,-238 127,-238 127,-200 21,-200"/>
</g>
<g id="graph14" class="cluster"><title>cluster_Preservation_WorkfloQA_imageSize</title>
<polygon fill="#f0f8ff" stroke="black" points="131,-54 131,-184 278,-184 278,-54 131,-54"/>
</g>
<g id="graph15" class="cluster"><title>cluster_Preservation_WorkfloQA_imageSizesinks</title>
<polygon fill="#ffffff" stroke="black" stroke-dasharray="1,5" points="139,-62 139,-100 220,-100 220,-62 139,-62"/>
</g>
<g id="graph16" class="cluster"><title>cluster_Preservation_WorkfloQA_imageSizesources</title>
<polygon fill="#ffffff" stroke="black" stroke-dasharray="1,5" points="139,-138 139,-176 270,-176 270,-138 139,-138"/>
</g>
<g id="graph17" class="cluster"><title>cluster_Preservation_Workflosinks</title>
<polygon fill="#ffffff" stroke="black" stroke-dasharray="1,5" points="8,-8 8,-46 289,-46 289,-8 8,-8"/>
</g>
<g id="graph18" class="cluster"><title>cluster_Preservation_Workflosources</title>
<polygon fill="#ffffff" stroke="black" stroke-dasharray="1,5" points="206,-536 206,-574 262,-574 262,-536 206,-536"/>
</g>
<!-- Preservation_WorkflomigrationWORKFLOWINTERNALSINKCONTROL -->
<g id="node3" class="node"><title>Preservation_WorkflomigrationWORKFLOWINTERNALSINKCONTROL</title>
<polygon fill="#66cd00" stroke="black" points="145,-389 152,-398 138,-398 145,-389"/>
</g>
<!-- Preservation_WorkflomigrationWORKFLOWINTERNALSINK_status -->
<g id="node4" class="node"><title>Preservation_WorkflomigrationWORKFLOWINTERNALSINK_status</title>
<ellipse fill="#8ed6f0" stroke="black" cx="123" cy="-395" rx="10.25" ry="10.5"/>
</g>
<!-- Preservation_WorkflomigrationWORKFLOWINTERNALSINK_target_path -->
<g id="node5" class="node"><title>Preservation_WorkflomigrationWORKFLOWINTERNALSINK_target_path</title>
<ellipse fill="#8ed6f0" stroke="black" cx="98" cy="-395" rx="10.25" ry="10.5"/>
</g>
<!-- Preservation_WorkfloQA_mseWORKFLOWINTERNALSOURCE_right_path -->
<g id="node28" class="node"><title>Preservation_WorkfloQA_mseWORKFLOWINTERNALSOURCE_right_path</title>
<ellipse fill="#8ed6f0" stroke="black" cx="200" cy="-333" rx="10.25" ry="10.5"/>
</g>
<!-- Preservation_WorkflomigrationWORKFLOWINTERNALSINK_target_path&#45;&gt;Preservation_WorkfloQA_mseWORKFLOWINTERNALSOURCE_right_path -->
<g id="edge115" class="edge"><title>Preservation_WorkflomigrationWORKFLOWINTERNALSINK_target_path:s&#45;&gt;Preservation_WorkfloQA_mseWORKFLOWINTERNALSOURCE_right_path:n</title>
<path fill="none" stroke="#000000" d="M98,-383C98,-338.591 183.952,-384.459 198.053,-354.861"/>
<polygon fill="#000000" stroke="#000000" points="201.497,-355.489 200,-345 194.63,-354.133 201.497,-355.489"/>
</g>
<!-- Preservation_WorkfloCC_targetWORKFLOWINTERNALSOURCE_source_path -->
<g id="node59" class="node"><title>Preservation_WorkfloCC_targetWORKFLOWINTERNALSOURCE_source_path</title>
<ellipse fill="#8ed6f0" stroke="black" cx="82" cy="-333" rx="10.25" ry="10.5"/>
</g>
<!-- Preservation_WorkflomigrationWORKFLOWINTERNALSINK_target_path&#45;&gt;Preservation_WorkfloCC_targetWORKFLOWINTERNALSOURCE_source_path -->
<g id="edge117" class="edge"><title>Preservation_WorkflomigrationWORKFLOWINTERNALSINK_target_path:s&#45;&gt;Preservation_WorkfloCC_targetWORKFLOWINTERNALSOURCE_source_path:n</title>
<path fill="none" stroke="#000000" d="M98,-383C98,-368.684 88.2344,-364.728 83.9619,-354.944"/>
<polygon fill="#000000" stroke="#000000" points="87.3695,-354.133 82,-345 80.5019,-355.488 87.3695,-354.133"/>
</g>
<!-- Preservation_WorkfloWORKFLOWINTERNALSINK_target_path -->
<g id="node92" class="node"><title>Preservation_WorkfloWORKFLOWINTERNALSINK_target_path</title>
<ellipse fill="#8ed6f0" stroke="black" cx="27" cy="-27" rx="10.25" ry="10.5"/>
</g>
<!-- Preservation_WorkflomigrationWORKFLOWINTERNALSINK_target_path&#45;&gt;Preservation_WorkfloWORKFLOWINTERNALSINK_target_path -->
<g id="edge105" class="edge"><title>Preservation_WorkflomigrationWORKFLOWINTERNALSINK_target_path:s&#45;&gt;Preservation_WorkfloWORKFLOWINTERNALSINK_target_path:n</title>
<path fill="none" stroke="#000000" d="M98,-383C98,-364.013 76.606,-372.131 62,-360 32.006,-335.089 2,-334.99 2,-296 2,-296 2,-296 2,-118 2,-84.913 22.1797,-77.2378 26.2788,-49.3126"/>
<polygon fill="#000000" stroke="#000000" points="29.7937,-49.2199 27,-39 22.8108,-48.7314 29.7937,-49.2199"/>
</g>
<!-- Preservation_WorkflomigrationWORKFLOWINTERNALSOURCECONTROL -->
<g id="node7" class="node"><title>Preservation_WorkflomigrationWORKFLOWINTERNALSOURCECONTROL</title>
<polygon fill="#ff4040" stroke="black" points="175,-507 168,-498 182,-498 175,-507"/>
</g>
<!-- Preservation_WorkflomigrationWORKFLOWINTERNALSOURCE_source_path -->
<g id="node8" class="node"><title>Preservation_WorkflomigrationWORKFLOWINTERNALSOURCE_source_path</title>
<ellipse fill="#8ed6f0" stroke="black" cx="153" cy="-501" rx="10.25" ry="10.5"/>
</g>
<!-- Preservation_Workflomigrationconvert -->
<g id="node10" class="node"><title>Preservation_Workflomigrationconvert</title>
<ellipse fill="#f28c55" stroke="black" cx="125" cy="-463" rx="10.25" ry="10.5"/>
</g>
<!-- Preservation_WorkflomigrationWORKFLOWINTERNALSOURCE_source_path&#45;&gt;Preservation_Workflomigrationconvert -->
<g id="edge17" class="edge"><title>Preservation_WorkflomigrationWORKFLOWINTERNALSOURCE_source_path:s&#45;&gt;Preservation_Workflomigrationconvert:isource_path:n</title>
<path fill="none" stroke="#000000" d="M153,-489C153,-482.328 148.522,-476.995 143.148,-472.996"/>
<polygon fill="#000000" stroke="#000000" points="144.858,-469.94 134.48,-467.81 141.264,-475.948 144.858,-469.94"/>
</g>
<!-- Preservation_WorkflomigrationWORKFLOWINTERNALSOURCE_compression -->
<g id="node9" class="node"><title>Preservation_WorkflomigrationWORKFLOWINTERNALSOURCE_compression</title>
<ellipse fill="#8ed6f0" stroke="black" cx="128" cy="-501" rx="10.25" ry="10.5"/>
</g>
<!-- Preservation_WorkflomigrationWORKFLOWINTERNALSOURCE_compression&#45;&gt;Preservation_Workflomigrationconvert -->
<g id="edge13" class="edge"><title>Preservation_WorkflomigrationWORKFLOWINTERNALSOURCE_compression:s&#45;&gt;Preservation_Workflomigrationconvert:icompression:n</title>
<path fill="none" stroke="#000000" d="M128,-489C128,-487.415 127.94,-485.778 127.837,-484.135"/>
<polygon fill="#000000" stroke="#000000" points="131.264,-483.27 126.71,-473.703 124.304,-484.021 131.264,-483.27"/>
</g>
<!-- Preservation_WorkflomigrationMerge0 -->
<g id="node12" class="node"><title>Preservation_WorkflomigrationMerge0</title>
<ellipse fill="#4f94cd" stroke="black" cx="125" cy="-429" rx="7" ry="7"/>
</g>
<!-- Preservation_Workflomigrationconvert&#45;&gt;Preservation_WorkflomigrationMerge0 -->
<g id="edge5" class="edge"><title>Preservation_Workflomigrationconvert:oSTDOUT:s&#45;&gt;Preservation_WorkflomigrationMerge0:iSTDOUTToMerge0_input0:n</title>
<path fill="none" stroke="#000000" d="M123.619,-452.572C123.543,-450.581 123.503,-448.426 123.5,-446.264"/>
<polygon fill="#000000" stroke="#000000" points="127.003,-446.228 123.79,-436.132 120.005,-446.028 127.003,-446.228"/>
</g>
<!-- Preservation_Workflomigrationconvert&#45;&gt;Preservation_WorkflomigrationMerge0 -->
<g id="edge9" class="edge"><title>Preservation_Workflomigrationconvert:oSTDERR:s&#45;&gt;Preservation_WorkflomigrationMerge0:iSTDERRToMerge0_input0:n</title>
<path fill="none" stroke="#000000" d="M126.381,-452.572C126.457,-450.581 126.497,-448.426 126.5,-446.264"/>
<polygon fill="#000000" stroke="#000000" points="129.995,-446.028 126.21,-436.132 122.997,-446.228 129.995,-446.028"/>
</g>
<!-- Preservation_WorkflomigrationcreateTargetPath -->
<g id="node11" class="node"><title>Preservation_WorkflomigrationcreateTargetPath</title>
<ellipse fill="#deb887" stroke="black" cx="90" cy="-501" rx="10.25" ry="10.5"/>
</g>
<!-- Preservation_WorkflomigrationcreateTargetPath&#45;&gt;Preservation_WorkflomigrationWORKFLOWINTERNALSINK_target_path -->
<g id="edge15" class="edge"><title>Preservation_WorkflomigrationcreateTargetPath:otargetPath:s&#45;&gt;Preservation_WorkflomigrationWORKFLOWINTERNALSINK_target_path:n</title>
<path fill="none" stroke="#000000" d="M91.3571,-490.518C93.3899,-475.559 97.071,-445.293 97.8519,-417.214"/>
<polygon fill="#000000" stroke="#000000" points="101.355,-417.05 98,-407 94.3553,-416.948 101.355,-417.05"/>
</g>
<!-- Preservation_WorkflomigrationcreateTargetPath&#45;&gt;Preservation_Workflomigrationconvert -->
<g id="edge7" class="edge"><title>Preservation_WorkflomigrationcreateTargetPath:otargetPath:s&#45;&gt;Preservation_Workflomigrationconvert:itarget_path:n</title>
<path fill="none" stroke="#000000" d="M96.7484,-493.059C100.711,-488.983 105.875,-483.671 110.703,-478.706"/>
<polygon fill="#000000" stroke="#000000" points="113.329,-481.025 117.79,-471.416 108.31,-476.146 113.329,-481.025"/>
</g>
<!-- Preservation_WorkflomigrationMerge0&#45;&gt;Preservation_WorkflomigrationWORKFLOWINTERNALSINK_status -->
<g id="edge11" class="edge"><title>Preservation_WorkflomigrationMerge0:oMerge0_output:s&#45;&gt;Preservation_WorkflomigrationWORKFLOWINTERNALSINK_status:n</title>
<path fill="none" stroke="#000000" d="M124.094,-421.766C123.912,-420.333 123.726,-418.729 123.56,-417.038"/>
<polygon fill="#000000" stroke="#000000" points="127.051,-416.79 123,-407 120.062,-417.179 127.051,-416.79"/>
</g>
<!-- Preservation_WorkfloQA_mseWORKFLOWINTERNALSINKCONTROL -->
<g id="node22" class="node"><title>Preservation_WorkfloQA_mseWORKFLOWINTERNALSINKCONTROL</title>
<polygon fill="#66cd00" stroke="black" points="243,-213 250,-222 236,-222 243,-213"/>
</g>
<!-- Preservation_WorkfloQA_mseWORKFLOWINTERNALSINK_mse -->
<g id="node23" class="node"><title>Preservation_WorkfloQA_mseWORKFLOWINTERNALSINK_mse</title>
<ellipse fill="#8ed6f0" stroke="black" cx="221" cy="-219" rx="10.25" ry="10.5"/>
</g>
<!-- Preservation_WorkfloWORKFLOWINTERNALSINK_mse -->
<g id="node93" class="node"><title>Preservation_WorkfloWORKFLOWINTERNALSINK_mse</title>
<ellipse fill="#8ed6f0" stroke="black" cx="127" cy="-27" rx="10.25" ry="10.5"/>
</g>
<!-- Preservation_WorkfloQA_mseWORKFLOWINTERNALSINK_mse&#45;&gt;Preservation_WorkfloWORKFLOWINTERNALSINK_mse -->
<g id="edge93" class="edge"><title>Preservation_WorkfloQA_mseWORKFLOWINTERNALSINK_mse:s&#45;&gt;Preservation_WorkfloWORKFLOWINTERNALSINK_mse:n</title>
<path fill="none" stroke="#000000" d="M221,-207C221,-197.572 214.484,-196.112 206,-192 192.308,-185.365 148.919,-194.596 138,-184 125.888,-172.246 126.588,-83.0964 126.919,-49.2464"/>
<polygon fill="#000000" stroke="#000000" points="130.421,-49.0275 127,-39 123.421,-48.9719 130.421,-49.0275"/>
</g>
<!-- Preservation_WorkfloQA_mseWORKFLOWINTERNALSINK_STDERR -->
<g id="node24" class="node"><title>Preservation_WorkfloQA_mseWORKFLOWINTERNALSINK_STDERR</title>
<ellipse fill="#8ed6f0" stroke="black" cx="171" cy="-219" rx="10.25" ry="10.5"/>
</g>
<!-- Preservation_WorkfloQA_mseWORKFLOWINTERNALSINK_STDOUT -->
<g id="node25" class="node"><title>Preservation_WorkfloQA_mseWORKFLOWINTERNALSINK_STDOUT</title>
<ellipse fill="#8ed6f0" stroke="black" cx="196" cy="-219" rx="10.25" ry="10.5"/>
</g>
<!-- Preservation_WorkfloQA_mseWORKFLOWINTERNALSOURCECONTROL -->
<g id="node27" class="node"><title>Preservation_WorkfloQA_mseWORKFLOWINTERNALSOURCECONTROL</title>
<polygon fill="#ff4040" stroke="black" points="247,-339 240,-330 254,-330 247,-339"/>
</g>
<!-- Preservation_WorkfloQA_msecompare -->
<g id="node30" class="node"><title>Preservation_WorkfloQA_msecompare</title>
<ellipse fill="#f28c55" stroke="black" cx="199" cy="-295" rx="10.25" ry="10.5"/>
</g>
<!-- Preservation_WorkfloQA_mseWORKFLOWINTERNALSOURCE_right_path&#45;&gt;Preservation_WorkfloQA_msecompare -->
<g id="edge24" class="edge"><title>Preservation_WorkfloQA_mseWORKFLOWINTERNALSOURCE_right_path:s&#45;&gt;Preservation_WorkfloQA_msecompare:iright_path:n</title>
<path fill="none" stroke="#000000" d="M200,-321C200,-319.425 199.98,-317.795 199.946,-316.157"/>
<polygon fill="#000000" stroke="#000000" points="203.428,-315.599 199.57,-305.732 196.432,-315.851 203.428,-315.599"/>
</g>
<!-- Preservation_WorkfloQA_mseWORKFLOWINTERNALSOURCE_left_path -->
<g id="node29" class="node"><title>Preservation_WorkfloQA_mseWORKFLOWINTERNALSOURCE_left_path</title>
<ellipse fill="#8ed6f0" stroke="black" cx="225" cy="-333" rx="10.25" ry="10.5"/>
</g>
<!-- Preservation_WorkfloQA_mseWORKFLOWINTERNALSOURCE_left_path&#45;&gt;Preservation_WorkfloQA_msecompare -->
<g id="edge30" class="edge"><title>Preservation_WorkfloQA_mseWORKFLOWINTERNALSOURCE_left_path:s&#45;&gt;Preservation_WorkfloQA_msecompare:ileft_path:n</title>
<path fill="none" stroke="#000000" d="M225,-321C225,-314.973 221.325,-309.944 216.738,-306.014"/>
<polygon fill="#000000" stroke="#000000" points="218.334,-302.868 208.094,-300.151 214.405,-308.661 218.334,-302.868"/>
</g>
<!-- Preservation_WorkfloQA_msecompare&#45;&gt;Preservation_WorkfloQA_mseWORKFLOWINTERNALSINK_STDERR -->
<g id="edge28" class="edge"><title>Preservation_WorkfloQA_msecompare:oSTDERR:s&#45;&gt;Preservation_WorkfloQA_mseWORKFLOWINTERNALSINK_STDERR:n</title>
<path fill="none" stroke="#000000" d="M193.062,-286.336C186.127,-276.719 175.189,-259.274 171.94,-241.116"/>
<polygon fill="#000000" stroke="#000000" points="175.41,-240.633 171,-231 168.44,-241.281 175.41,-240.633"/>
</g>
<!-- Preservation_WorkfloQA_msecompare&#45;&gt;Preservation_WorkfloQA_mseWORKFLOWINTERNALSINK_STDOUT -->
<g id="edge34" class="edge"><title>Preservation_WorkfloQA_msecompare:oSTDOUT:s&#45;&gt;Preservation_WorkfloQA_mseWORKFLOWINTERNALSINK_STDOUT:n</title>
<path fill="none" stroke="#000000" d="M198.243,-284.186C197.514,-274.025 196.472,-257.418 196.121,-241.382"/>
<polygon fill="#000000" stroke="#000000" points="199.616,-240.959 196,-231 192.617,-241.04 199.616,-240.959"/>
</g>
<!-- Preservation_WorkfloQA_mseExtractMSE -->
<g id="node31" class="node"><title>Preservation_WorkfloQA_mseExtractMSE</title>
<ellipse fill="#deb887" stroke="black" cx="217" cy="-257" rx="10.25" ry="10.5"/>
</g>
<!-- Preservation_WorkfloQA_msecompare&#45;&gt;Preservation_WorkfloQA_mseExtractMSE -->
<g id="edge22" class="edge"><title>Preservation_WorkfloQA_msecompare:oSTDERR:s&#45;&gt;Preservation_WorkfloQA_mseExtractMSE:iinput:n</title>
<path fill="none" stroke="#000000" d="M203.357,-285.285C204.817,-282.367 206.5,-279 208.175,-275.649"/>
<polygon fill="#000000" stroke="#000000" points="211.341,-277.144 212.683,-266.634 205.08,-274.013 211.341,-277.144"/>
</g>
<!-- Preservation_WorkfloQA_mseExtractMSE&#45;&gt;Preservation_WorkfloQA_mseWORKFLOWINTERNALSINK_mse -->
<g id="edge32" class="edge"><title>Preservation_WorkfloQA_mseExtractMSE:omse:s&#45;&gt;Preservation_WorkfloQA_mseWORKFLOWINTERNALSINK_mse:n</title>
<path fill="none" stroke="#000000" d="M219.28,-246.322C219.589,-244.737 219.889,-243.033 220.149,-241.273"/>
<polygon fill="#000000" stroke="#000000" points="223.663,-241.255 221,-231 216.687,-240.677 223.663,-241.255"/>
</g>
<!-- Preservation_WorkfloQA_msedifference_value -->
<g id="node32" class="node"><title>Preservation_WorkfloQA_msedifference_value</title>
<ellipse fill="#b0c4de" stroke="black" cx="162" cy="-333" rx="10.25" ry="10.5"/>
</g>
<!-- Preservation_WorkfloQA_msedifference_value&#45;&gt;Preservation_WorkfloQA_msecompare -->
<g id="edge26" class="edge"><title>Preservation_WorkfloQA_msedifference_value:ovalue:s&#45;&gt;Preservation_WorkfloQA_msecompare:idifference:n</title>
<path fill="none" stroke="#000000" d="M168.966,-324.946C172.286,-321.607 176.326,-317.576 180,-314 181.465,-312.574 183.002,-311.093 184.541,-309.62"/>
<polygon fill="#000000" stroke="#000000" points="187.072,-312.044 191.919,-302.623 182.255,-306.965 187.072,-312.044"/>
</g>
<!-- Preservation_WorkfloCC_sourceWORKFLOWINTERNALSOURCECONTROL -->
<g id="node42" class="node"><title>Preservation_WorkfloCC_sourceWORKFLOWINTERNALSOURCECONTROL</title>
<polygon fill="#ff4040" stroke="black" points="331,-339 324,-330 338,-330 331,-339"/>
</g>
<!-- Preservation_WorkfloCC_sourceWORKFLOWINTERNALSOURCE_source_path -->
<g id="node43" class="node"><title>Preservation_WorkfloCC_sourceWORKFLOWINTERNALSOURCE_source_path</title>
<ellipse fill="#8ed6f0" stroke="black" cx="309" cy="-333" rx="10.25" ry="10.5"/>
</g>
<!-- Preservation_WorkfloCC_sourceidentify -->
<g id="node49" class="node"><title>Preservation_WorkfloCC_sourceidentify</title>
<ellipse fill="#f28c55" stroke="black" cx="313" cy="-295" rx="10.25" ry="10.5"/>
</g>
<!-- Preservation_WorkfloCC_sourceWORKFLOWINTERNALSOURCE_source_path&#45;&gt;Preservation_WorkfloCC_sourceidentify -->
<g id="edge39" class="edge"><title>Preservation_WorkfloCC_sourceWORKFLOWINTERNALSOURCE_source_path:s&#45;&gt;Preservation_WorkfloCC_sourceidentify:isource_path:n</title>
<path fill="none" stroke="#000000" d="M309,-321C309,-319.247 309.097,-317.434 309.261,-315.622"/>
<polygon fill="#000000" stroke="#000000" points="312.731,-316.08 310.72,-305.678 305.805,-315.064 312.731,-316.08"/>
</g>
<!-- Preservation_WorkfloCC_sourceWORKFLOWINTERNALSINKCONTROL -->
<g id="node45" class="node"><title>Preservation_WorkfloCC_sourceWORKFLOWINTERNALSINKCONTROL</title>
<polygon fill="#66cd00" stroke="black" points="377,-213 384,-222 370,-222 377,-213"/>
</g>
<!-- Preservation_WorkfloCC_sourceWORKFLOWINTERNALSINK_image_width -->
<g id="node46" class="node"><title>Preservation_WorkfloCC_sourceWORKFLOWINTERNALSINK_image_width</title>
<ellipse fill="#8ed6f0" stroke="black" cx="305" cy="-219" rx="10.25" ry="10.5"/>
</g>
<!-- Preservation_WorkfloQA_imageSizeWORKFLOWINTERNALSOURCE_width_left -->
<g id="node81" class="node"><title>Preservation_WorkfloQA_imageSizeWORKFLOWINTERNALSOURCE_width_left</title>
<ellipse fill="#8ed6f0" stroke="black" cx="208" cy="-157" rx="10.25" ry="10.5"/>
</g>
<!-- Preservation_WorkfloCC_sourceWORKFLOWINTERNALSINK_image_width&#45;&gt;Preservation_WorkfloQA_imageSizeWORKFLOWINTERNALSOURCE_width_left -->
<g id="edge107" class="edge"><title>Preservation_WorkfloCC_sourceWORKFLOWINTERNALSINK_image_width:s&#45;&gt;Preservation_WorkfloQA_imageSizeWORKFLOWINTERNALSOURCE_width_left:n</title>
<path fill="none" stroke="#000000" d="M305,-207C305,-164.678 223.956,-206.662 210.026,-178.83"/>
<polygon fill="#000000" stroke="#000000" points="213.447,-178.088 208,-169 206.591,-179.501 213.447,-178.088"/>
</g>
<!-- Preservation_WorkfloWORKFLOWINTERNALSINK_source_width -->
<g id="node94" class="node"><title>Preservation_WorkfloWORKFLOWINTERNALSINK_source_width</title>
<ellipse fill="#8ed6f0" stroke="black" cx="202" cy="-27" rx="10.25" ry="10.5"/>
</g>
<!-- Preservation_WorkfloCC_sourceWORKFLOWINTERNALSINK_image_width&#45;&gt;Preservation_WorkfloWORKFLOWINTERNALSINK_source_width -->
<g id="edge101" class="edge"><title>Preservation_WorkfloCC_sourceWORKFLOWINTERNALSINK_image_width:s&#45;&gt;Preservation_WorkfloWORKFLOWINTERNALSINK_source_width:n</title>
<path fill="none" stroke="#000000" d="M305,-207C305,-161.508 302.349,-147.043 279,-108 260.923,-77.7722 247.733,-76.9311 221,-54 216.534,-50.1693 211.27,-49.26 207.417,-47.4628"/>
<polygon fill="#000000" stroke="#000000" points="210.339,-45.5354 202,-39 204.443,-49.3092 210.339,-45.5354"/>
</g>
<!-- Preservation_WorkfloCC_sourceWORKFLOWINTERNALSINK_image_height -->
<g id="node47" class="node"><title>Preservation_WorkfloCC_sourceWORKFLOWINTERNALSINK_image_height</title>
<ellipse fill="#8ed6f0" stroke="black" cx="330" cy="-219" rx="10.25" ry="10.5"/>
</g>
<!-- Preservation_WorkfloQA_imageSizeWORKFLOWINTERNALSOURCE_height_left -->
<g id="node79" class="node"><title>Preservation_WorkfloQA_imageSizeWORKFLOWINTERNALSOURCE_height_left</title>
<ellipse fill="#8ed6f0" stroke="black" cx="233" cy="-157" rx="10.25" ry="10.5"/>
</g>
<!-- Preservation_WorkfloCC_sourceWORKFLOWINTERNALSINK_image_height&#45;&gt;Preservation_WorkfloQA_imageSizeWORKFLOWINTERNALSOURCE_height_left -->
<g id="edge99" class="edge"><title>Preservation_WorkfloCC_sourceWORKFLOWINTERNALSINK_image_height:s&#45;&gt;Preservation_WorkfloQA_imageSizeWORKFLOWINTERNALSOURCE_height_left:n</title>
<path fill="none" stroke="#000000" d="M330,-207C330,-164.678 248.956,-206.662 235.026,-178.83"/>
<polygon fill="#000000" stroke="#000000" points="238.447,-178.088 233,-169 231.591,-179.501 238.447,-178.088"/>
</g>
<!-- Preservation_WorkfloWORKFLOWINTERNALSINK_source_height -->
<g id="node95" class="node"><title>Preservation_WorkfloWORKFLOWINTERNALSINK_source_height</title>
<ellipse fill="#8ed6f0" stroke="black" cx="227" cy="-27" rx="10.25" ry="10.5"/>
</g>
<!-- Preservation_WorkfloCC_sourceWORKFLOWINTERNALSINK_image_height&#45;&gt;Preservation_WorkfloWORKFLOWINTERNALSINK_source_height -->
<g id="edge85" class="edge"><title>Preservation_WorkfloCC_sourceWORKFLOWINTERNALSINK_image_height:s&#45;&gt;Preservation_WorkfloWORKFLOWINTERNALSINK_source_height:n</title>
<path fill="none" stroke="#000000" d="M330,-207C330,-172.475 327.972,-77.8408 303,-54 281.405,-33.383 240.111,-63.1348 229.523,-48.9486"/>
<polygon fill="#000000" stroke="#000000" points="232.851,-47.8328 227,-39 226.066,-49.5535 232.851,-47.8328"/>
</g>
<!-- Preservation_WorkfloCC_sourceWORKFLOWINTERNALSINK_image_resolution -->
<g id="node48" class="node"><title>Preservation_WorkfloCC_sourceWORKFLOWINTERNALSINK_image_resolution</title>
<ellipse fill="#8ed6f0" stroke="black" cx="355" cy="-219" rx="10.25" ry="10.5"/>
</g>
<!-- Preservation_WorkfloWORKFLOWINTERNALSINK_source_resolution -->
<g id="node101" class="node"><title>Preservation_WorkfloWORKFLOWINTERNALSINK_source_resolution</title>
<ellipse fill="#8ed6f0" stroke="black" cx="252" cy="-27" rx="10.25" ry="10.5"/>
</g>
<!-- Preservation_WorkfloCC_sourceWORKFLOWINTERNALSINK_image_resolution&#45;&gt;Preservation_WorkfloWORKFLOWINTERNALSINK_source_resolution -->
<g id="edge81" class="edge"><title>Preservation_WorkfloCC_sourceWORKFLOWINTERNALSINK_image_resolution:s&#45;&gt;Preservation_WorkfloWORKFLOWINTERNALSINK_source_resolution:n</title>
<path fill="none" stroke="#000000" d="M355,-207C355,-137.705 375.419,-101.536 325,-54 304.289,-34.4735 265.263,-61.8919 254.696,-48.9678"/>
<polygon fill="#000000" stroke="#000000" points="257.99,-47.7393 252,-39 251.232,-49.567 257.99,-47.7393"/>
</g>
<!-- Preservation_WorkfloCC_sourceidentify&#45;&gt;Preservation_WorkfloCC_sourceWORKFLOWINTERNALSINK_image_resolution -->
<g id="edge47" class="edge"><title>Preservation_WorkfloCC_sourceidentify:oSTDOUT:s&#45;&gt;Preservation_WorkfloCC_sourceWORKFLOWINTERNALSINK_image_resolution:n</title>
<path fill="none" stroke="#000000" d="M320.703,-287.929C331.123,-279.077 348.963,-261.453 353.774,-241.153"/>
<polygon fill="#000000" stroke="#000000" points="357.276,-241.347 355,-231 350.327,-240.508 357.276,-241.347"/>
</g>
<!-- Preservation_WorkfloCC_sourceextractSize -->
<g id="node50" class="node"><title>Preservation_WorkfloCC_sourceextractSize</title>
<ellipse fill="#deb887" stroke="black" cx="313" cy="-257" rx="10.25" ry="10.5"/>
</g>
<!-- Preservation_WorkfloCC_sourceidentify&#45;&gt;Preservation_WorkfloCC_sourceextractSize -->
<g id="edge45" class="edge"><title>Preservation_WorkfloCC_sourceidentify:oSTDOUT:s&#45;&gt;Preservation_WorkfloCC_sourceextractSize:iinput:n</title>
<path fill="none" stroke="#000000" d="M313,-284.163C313,-282.146 313,-279.956 313,-277.73"/>
<polygon fill="#000000" stroke="#000000" points="316.5,-277.576 313,-267.576 309.5,-277.576 316.5,-277.576"/>
</g>
<!-- Preservation_WorkfloCC_sourceextractSize&#45;&gt;Preservation_WorkfloCC_sourceWORKFLOWINTERNALSINK_image_width -->
<g id="edge43" class="edge"><title>Preservation_WorkfloCC_sourceextractSize:owidth:s&#45;&gt;Preservation_WorkfloCC_sourceWORKFLOWINTERNALSINK_image_width:n</title>
<path fill="none" stroke="#000000" d="M308.625,-246.96C307.896,-245.141 307.183,-243.142 306.585,-241.056"/>
<polygon fill="#000000" stroke="#000000" points="310.015,-240.333 305,-231 303.1,-241.423 310.015,-240.333"/>
</g>
<!-- Preservation_WorkfloCC_sourceextractSize&#45;&gt;Preservation_WorkfloCC_sourceWORKFLOWINTERNALSINK_image_height -->
<g id="edge41" class="edge"><title>Preservation_WorkfloCC_sourceextractSize:oheight:s&#45;&gt;Preservation_WorkfloCC_sourceWORKFLOWINTERNALSINK_image_height:n</title>
<path fill="none" stroke="#000000" d="M320.704,-249.376C323.023,-246.989 325.422,-244.076 327.202,-240.835"/>
<polygon fill="#000000" stroke="#000000" points="330.63,-241.576 330,-231 323.898,-239.661 330.63,-241.576"/>
</g>
<!-- Preservation_WorkfloCC_targetWORKFLOWINTERNALSOURCECONTROL -->
<g id="node58" class="node"><title>Preservation_WorkfloCC_targetWORKFLOWINTERNALSOURCECONTROL</title>
<polygon fill="#ff4040" stroke="black" points="104,-339 97,-330 111,-330 104,-339"/>
</g>
<!-- Preservation_WorkfloCC_targetidentify -->
<g id="node65" class="node"><title>Preservation_WorkfloCC_targetidentify</title>
<ellipse fill="#f28c55" stroke="black" cx="82" cy="-295" rx="10.25" ry="10.5"/>
</g>
<!-- Preservation_WorkfloCC_targetWORKFLOWINTERNALSOURCE_source_path&#45;&gt;Preservation_WorkfloCC_targetidentify -->
<g id="edge60" class="edge"><title>Preservation_WorkfloCC_targetWORKFLOWINTERNALSOURCE_source_path:s&#45;&gt;Preservation_WorkfloCC_targetidentify:isource_path:n</title>
<path fill="none" stroke="#000000" d="M82,-321C82,-319.427 82,-317.798 82,-316.16"/>
<polygon fill="#000000" stroke="#000000" points="85.5001,-315.735 82,-305.735 78.5001,-315.735 85.5001,-315.735"/>
</g>
<!-- Preservation_WorkfloCC_targetWORKFLOWINTERNALSINKCONTROL -->
<g id="node61" class="node"><title>Preservation_WorkfloCC_targetWORKFLOWINTERNALSINKCONTROL</title>
<polygon fill="#66cd00" stroke="black" points="112,-213 119,-222 105,-222 112,-213"/>
</g>
<!-- Preservation_WorkfloCC_targetWORKFLOWINTERNALSINK_image_width -->
<g id="node62" class="node"><title>Preservation_WorkfloCC_targetWORKFLOWINTERNALSINK_image_width</title>
<ellipse fill="#8ed6f0" stroke="black" cx="65" cy="-219" rx="10.25" ry="10.5"/>
</g>
<!-- Preservation_WorkfloQA_imageSizeWORKFLOWINTERNALSOURCE_width_right -->
<g id="node82" class="node"><title>Preservation_WorkfloQA_imageSizeWORKFLOWINTERNALSOURCE_width_right</title>
<ellipse fill="#8ed6f0" stroke="black" cx="158" cy="-157" rx="10.25" ry="10.5"/>
</g>
<!-- Preservation_WorkfloCC_targetWORKFLOWINTERNALSINK_image_width&#45;&gt;Preservation_WorkfloQA_imageSizeWORKFLOWINTERNALSOURCE_width_right -->
<g id="edge91" class="edge"><title>Preservation_WorkfloCC_targetWORKFLOWINTERNALSINK_image_width:s&#45;&gt;Preservation_WorkfloQA_imageSizeWORKFLOWINTERNALSOURCE_width_right:n</title>
<path fill="none" stroke="#000000" d="M65,-207C65,-166.361 142.04,-205.207 155.883,-178.85"/>
<polygon fill="#000000" stroke="#000000" points="159.32,-179.512 158,-169 152.477,-178.041 159.32,-179.512"/>
</g>
<!-- Preservation_WorkfloWORKFLOWINTERNALSINK_target_width -->
<g id="node96" class="node"><title>Preservation_WorkfloWORKFLOWINTERNALSINK_target_width</title>
<ellipse fill="#8ed6f0" stroke="black" cx="77" cy="-27" rx="10.25" ry="10.5"/>
</g>
<!-- Preservation_WorkfloCC_targetWORKFLOWINTERNALSINK_image_width&#45;&gt;Preservation_WorkfloWORKFLOWINTERNALSINK_target_width -->
<g id="edge95" class="edge"><title>Preservation_WorkfloCC_targetWORKFLOWINTERNALSINK_image_width:s&#45;&gt;Preservation_WorkfloWORKFLOWINTERNALSINK_target_width:n</title>
<path fill="none" stroke="#000000" d="M65,-207C65,-135.652 75.9014,-115.696 76.9234,-49.1655"/>
<polygon fill="#000000" stroke="#000000" points="80.4244,-49.0261 77,-39 73.4246,-48.9733 80.4244,-49.0261"/>
</g>
<!-- Preservation_WorkfloCC_targetWORKFLOWINTERNALSINK_image_height -->
<g id="node63" class="node"><title>Preservation_WorkfloCC_targetWORKFLOWINTERNALSINK_image_height</title>
<ellipse fill="#8ed6f0" stroke="black" cx="90" cy="-219" rx="10.25" ry="10.5"/>
</g>
<!-- Preservation_WorkfloQA_imageSizeWORKFLOWINTERNALSOURCE_height_right -->
<g id="node80" class="node"><title>Preservation_WorkfloQA_imageSizeWORKFLOWINTERNALSOURCE_height_right</title>
<ellipse fill="#8ed6f0" stroke="black" cx="183" cy="-157" rx="10.25" ry="10.5"/>
</g>
<!-- Preservation_WorkfloCC_targetWORKFLOWINTERNALSINK_image_height&#45;&gt;Preservation_WorkfloQA_imageSizeWORKFLOWINTERNALSOURCE_height_right -->
<g id="edge111" class="edge"><title>Preservation_WorkfloCC_targetWORKFLOWINTERNALSINK_image_height:s&#45;&gt;Preservation_WorkfloQA_imageSizeWORKFLOWINTERNALSOURCE_height_right:n</title>
<path fill="none" stroke="#000000" d="M90,-207C90,-166.361 167.04,-205.207 180.883,-178.85"/>
<polygon fill="#000000" stroke="#000000" points="184.32,-179.512 183,-169 177.477,-178.041 184.32,-179.512"/>
</g>
<!-- Preservation_WorkfloWORKFLOWINTERNALSINK_target_height -->
<g id="node97" class="node"><title>Preservation_WorkfloWORKFLOWINTERNALSINK_target_height</title>
<ellipse fill="#8ed6f0" stroke="black" cx="102" cy="-27" rx="10.25" ry="10.5"/>
</g>
<!-- Preservation_WorkfloCC_targetWORKFLOWINTERNALSINK_image_height&#45;&gt;Preservation_WorkfloWORKFLOWINTERNALSINK_target_height -->
<g id="edge87" class="edge"><title>Preservation_WorkfloCC_targetWORKFLOWINTERNALSINK_image_height:s&#45;&gt;Preservation_WorkfloWORKFLOWINTERNALSINK_target_height:n</title>
<path fill="none" stroke="#000000" d="M90,-207C90,-135.652 100.901,-115.696 101.923,-49.1655"/>
<polygon fill="#000000" stroke="#000000" points="105.424,-49.0261 102,-39 98.4246,-48.9733 105.424,-49.0261"/>
</g>
<!-- Preservation_WorkfloCC_targetWORKFLOWINTERNALSINK_image_resolution -->
<g id="node64" class="node"><title>Preservation_WorkfloCC_targetWORKFLOWINTERNALSINK_image_resolution</title>
<ellipse fill="#8ed6f0" stroke="black" cx="40" cy="-219" rx="10.25" ry="10.5"/>
</g>
<!-- Preservation_WorkfloWORKFLOWINTERNALSINK_target_resolution -->
<g id="node100" class="node"><title>Preservation_WorkfloWORKFLOWINTERNALSINK_target_resolution</title>
<ellipse fill="#8ed6f0" stroke="black" cx="52" cy="-27" rx="10.25" ry="10.5"/>
</g>
<!-- Preservation_WorkfloCC_targetWORKFLOWINTERNALSINK_image_resolution&#45;&gt;Preservation_WorkfloWORKFLOWINTERNALSINK_target_resolution -->
<g id="edge79" class="edge"><title>Preservation_WorkfloCC_targetWORKFLOWINTERNALSINK_image_resolution:s&#45;&gt;Preservation_WorkfloWORKFLOWINTERNALSINK_target_resolution:n</title>
<path fill="none" stroke="#000000" d="M40,-207C40,-135.652 50.9014,-115.696 51.9234,-49.1655"/>
<polygon fill="#000000" stroke="#000000" points="55.4244,-49.0261 52,-39 48.4246,-48.9733 55.4244,-49.0261"/>
</g>
<!-- Preservation_WorkfloCC_targetidentify&#45;&gt;Preservation_WorkfloCC_targetWORKFLOWINTERNALSINK_image_resolution -->
<g id="edge52" class="edge"><title>Preservation_WorkfloCC_targetidentify:oSTDOUT:s&#45;&gt;Preservation_WorkfloCC_targetWORKFLOWINTERNALSINK_image_resolution:n</title>
<path fill="none" stroke="#000000" d="M74.2966,-287.929C63.8766,-279.077 46.0371,-261.453 41.2258,-241.153"/>
<polygon fill="#000000" stroke="#000000" points="44.6734,-240.508 40,-231 37.7238,-241.347 44.6734,-240.508"/>
</g>
<!-- Preservation_WorkfloCC_targetextractSize -->
<g id="node66" class="node"><title>Preservation_WorkfloCC_targetextractSize</title>
<ellipse fill="#deb887" stroke="black" cx="82" cy="-257" rx="10.25" ry="10.5"/>
</g>
<!-- Preservation_WorkfloCC_targetidentify&#45;&gt;Preservation_WorkfloCC_targetextractSize -->
<g id="edge58" class="edge"><title>Preservation_WorkfloCC_targetidentify:oSTDOUT:s&#45;&gt;Preservation_WorkfloCC_targetextractSize:iinput:n</title>
<path fill="none" stroke="#000000" d="M82,-284.163C82,-282.146 82,-279.956 82,-277.73"/>
<polygon fill="#000000" stroke="#000000" points="85.5001,-277.576 82,-267.576 78.5001,-277.576 85.5001,-277.576"/>
</g>
<!-- Preservation_WorkfloCC_targetextractSize&#45;&gt;Preservation_WorkfloCC_targetWORKFLOWINTERNALSINK_image_width -->
<g id="edge54" class="edge"><title>Preservation_WorkfloCC_targetextractSize:owidth:s&#45;&gt;Preservation_WorkfloCC_targetWORKFLOWINTERNALSINK_image_width:n</title>
<path fill="none" stroke="#000000" d="M74.2958,-249.376C71.9766,-246.989 69.5776,-244.076 67.7977,-240.835"/>
<polygon fill="#000000" stroke="#000000" points="71.1025,-239.661 65,-231 64.3696,-241.576 71.1025,-239.661"/>
</g>
<!-- Preservation_WorkfloCC_targetextractSize&#45;&gt;Preservation_WorkfloCC_targetWORKFLOWINTERNALSINK_image_height -->
<g id="edge56" class="edge"><title>Preservation_WorkfloCC_targetextractSize:oheight:s&#45;&gt;Preservation_WorkfloCC_targetWORKFLOWINTERNALSINK_image_height:n</title>
<path fill="none" stroke="#000000" d="M86.3745,-246.96C87.1041,-245.141 87.8169,-243.142 88.4147,-241.056"/>
<polygon fill="#000000" stroke="#000000" points="91.8999,-241.423 90,-231 84.9853,-240.333 91.8999,-241.423"/>
</g>
<!-- Preservation_WorkfloQA_imageSizeWORKFLOWINTERNALSINKCONTROL -->
<g id="node74" class="node"><title>Preservation_WorkfloQA_imageSizeWORKFLOWINTERNALSINKCONTROL</title>
<polygon fill="#66cd00" stroke="black" points="205,-75 212,-84 198,-84 205,-75"/>
</g>
<!-- Preservation_WorkfloQA_imageSizeWORKFLOWINTERNALSINK_height_equals -->
<g id="node75" class="node"><title>Preservation_WorkfloQA_imageSizeWORKFLOWINTERNALSINK_height_equals</title>
<ellipse fill="#8ed6f0" stroke="black" cx="158" cy="-81" rx="10.25" ry="10.5"/>
</g>
<!-- Preservation_WorkfloWORKFLOWINTERNALSINK_height_equals -->
<g id="node99" class="node"><title>Preservation_WorkfloWORKFLOWINTERNALSINK_height_equals</title>
<ellipse fill="#8ed6f0" stroke="black" cx="152" cy="-27" rx="10.25" ry="10.5"/>
</g>
<!-- Preservation_WorkfloQA_imageSizeWORKFLOWINTERNALSINK_height_equals&#45;&gt;Preservation_WorkfloWORKFLOWINTERNALSINK_height_equals -->
<g id="edge97" class="edge"><title>Preservation_WorkfloQA_imageSizeWORKFLOWINTERNALSINK_height_equals:s&#45;&gt;Preservation_WorkfloWORKFLOWINTERNALSINK_height_equals:n</title>
<path fill="none" stroke="#000000" d="M158,-69C158,-59.6518 155.164,-55.4046 153.392,-49.2445"/>
<polygon fill="#000000" stroke="#000000" points="156.814,-48.4379 152,-39 149.878,-49.3801 156.814,-48.4379"/>
</g>
<!-- Preservation_WorkfloQA_imageSizeWORKFLOWINTERNALSINK_wdith_equals -->
<g id="node76" class="node"><title>Preservation_WorkfloQA_imageSizeWORKFLOWINTERNALSINK_wdith_equals</title>
<ellipse fill="#8ed6f0" stroke="black" cx="183" cy="-81" rx="10.25" ry="10.5"/>
</g>
<!-- Preservation_WorkfloWORKFLOWINTERNALSINK_width_equals -->
<g id="node98" class="node"><title>Preservation_WorkfloWORKFLOWINTERNALSINK_width_equals</title>
<ellipse fill="#8ed6f0" stroke="black" cx="177" cy="-27" rx="10.25" ry="10.5"/>
</g>
<!-- Preservation_WorkfloQA_imageSizeWORKFLOWINTERNALSINK_wdith_equals&#45;&gt;Preservation_WorkfloWORKFLOWINTERNALSINK_width_equals -->
<g id="edge103" class="edge"><title>Preservation_WorkfloQA_imageSizeWORKFLOWINTERNALSINK_wdith_equals:s&#45;&gt;Preservation_WorkfloWORKFLOWINTERNALSINK_width_equals:n</title>
<path fill="none" stroke="#000000" d="M183,-69C183,-59.6518 180.164,-55.4046 178.392,-49.2445"/>
<polygon fill="#000000" stroke="#000000" points="181.814,-48.4379 177,-39 174.878,-49.3801 181.814,-48.4379"/>
</g>
<!-- Preservation_WorkfloQA_imageSizeWORKFLOWINTERNALSOURCECONTROL -->
<g id="node78" class="node"><title>Preservation_WorkfloQA_imageSizeWORKFLOWINTERNALSOURCECONTROL</title>
<polygon fill="#ff4040" stroke="black" points="255,-163 248,-154 262,-154 255,-163"/>
</g>
<!-- Preservation_WorkfloQA_imageSizecompare_height -->
<g id="node83" class="node"><title>Preservation_WorkfloQA_imageSizecompare_height</title>
<ellipse fill="#deb887" stroke="black" cx="183" cy="-119" rx="10.25" ry="10.5"/>
</g>
<!-- Preservation_WorkfloQA_imageSizeWORKFLOWINTERNALSOURCE_height_left&#45;&gt;Preservation_WorkfloQA_imageSizecompare_height -->
<g id="edge73" class="edge"><title>Preservation_WorkfloQA_imageSizeWORKFLOWINTERNALSOURCE_height_left:s&#45;&gt;Preservation_WorkfloQA_imageSizecompare_height:iheight1:n</title>
<path fill="none" stroke="#000000" d="M233,-145C233,-131.079 217.303,-124.91 203.499,-122.176"/>
<polygon fill="#000000" stroke="#000000" points="204.014,-118.714 193.604,-120.683 202.97,-125.635 204.014,-118.714"/>
</g>
<!-- Preservation_WorkfloQA_imageSizeWORKFLOWINTERNALSOURCE_height_right&#45;&gt;Preservation_WorkfloQA_imageSizecompare_height -->
<g id="edge75" class="edge"><title>Preservation_WorkfloQA_imageSizeWORKFLOWINTERNALSOURCE_height_right:s&#45;&gt;Preservation_WorkfloQA_imageSizecompare_height:iheight2:n</title>
<path fill="none" stroke="#000000" d="M183,-145C183,-143.427 183,-141.798 183,-140.16"/>
<polygon fill="#000000" stroke="#000000" points="186.5,-139.735 183,-129.735 179.5,-139.735 186.5,-139.735"/>
</g>
<!-- Preservation_WorkfloQA_imageSizeWORKFLOWINTERNALSOURCE_width_left&#45;&gt;Preservation_WorkfloQA_imageSizecompare_height -->
<g id="edge69" class="edge"><title>Preservation_WorkfloQA_imageSizeWORKFLOWINTERNALSOURCE_width_left:s&#45;&gt;Preservation_WorkfloQA_imageSizecompare_height:iwidth1:n</title>
<path fill="none" stroke="#000000" d="M208,-145C208,-139.169 204.557,-134.223 200.227,-130.308"/>
<polygon fill="#000000" stroke="#000000" points="202.187,-127.406 192.026,-124.406 198.098,-133.088 202.187,-127.406"/>
</g>
<!-- Preservation_WorkfloQA_imageSizeWORKFLOWINTERNALSOURCE_width_right&#45;&gt;Preservation_WorkfloQA_imageSizecompare_height -->
<g id="edge71" class="edge"><title>Preservation_WorkfloQA_imageSizeWORKFLOWINTERNALSOURCE_width_right:s&#45;&gt;Preservation_WorkfloQA_imageSizecompare_height:iwidth2:n</title>
<path fill="none" stroke="#000000" d="M158,-145C158,-139.169 161.443,-134.223 165.773,-130.308"/>
<polygon fill="#000000" stroke="#000000" points="167.902,-133.088 173.974,-124.406 163.813,-127.406 167.902,-133.088"/>
</g>
<!-- Preservation_WorkfloQA_imageSizecompare_height&#45;&gt;Preservation_WorkfloQA_imageSizeWORKFLOWINTERNALSINK_height_equals -->
<g id="edge65" class="edge"><title>Preservation_WorkfloQA_imageSizecompare_height:oheightEquals:s&#45;&gt;Preservation_WorkfloQA_imageSizeWORKFLOWINTERNALSINK_height_equals:n</title>
<path fill="none" stroke="#000000" d="M173.974,-113.594C169.499,-110.969 164.378,-107.225 161.166,-102.509"/>
<polygon fill="#000000" stroke="#000000" points="164.48,-101.382 158,-93 157.839,-103.594 164.48,-101.382"/>
</g>
<!-- Preservation_WorkfloQA_imageSizecompare_height&#45;&gt;Preservation_WorkfloQA_imageSizeWORKFLOWINTERNALSINK_wdith_equals -->
<g id="edge67" class="edge"><title>Preservation_WorkfloQA_imageSizecompare_height:owidthEquals:s&#45;&gt;Preservation_WorkfloQA_imageSizeWORKFLOWINTERNALSINK_wdith_equals:n</title>
<path fill="none" stroke="#000000" d="M183,-108.265C183,-106.675 183,-104.969 183,-103.211"/>
<polygon fill="#000000" stroke="#000000" points="186.5,-103 183,-93 179.5,-103 186.5,-103"/>
</g>
<!-- Preservation_WorkfloWORKFLOWINTERNALSINKCONTROL -->
<g id="node91" class="node"><title>Preservation_WorkfloWORKFLOWINTERNALSINKCONTROL</title>
<polygon fill="#66cd00" stroke="black" points="274,-21 281,-30 267,-30 274,-21"/>
</g>
<!-- Preservation_WorkfloWORKFLOWINTERNALSOURCECONTROL -->
<g id="node103" class="node"><title>Preservation_WorkfloWORKFLOWINTERNALSOURCECONTROL</title>
<polygon fill="#ff4040" stroke="black" points="247,-561 240,-552 254,-552 247,-561"/>
</g>
<!-- Preservation_WorkfloWORKFLOWINTERNALSOURCE_source_path -->
<g id="node104" class="node"><title>Preservation_WorkfloWORKFLOWINTERNALSOURCE_source_path</title>
<ellipse fill="#8ed6f0" stroke="black" cx="225" cy="-555" rx="10.25" ry="10.5"/>
</g>
<!-- Preservation_WorkfloWORKFLOWINTERNALSOURCE_source_path&#45;&gt;Preservation_WorkflomigrationWORKFLOWINTERNALSOURCE_source_path -->
<g id="edge109" class="edge"><title>Preservation_WorkfloWORKFLOWINTERNALSOURCE_source_path:s&#45;&gt;Preservation_WorkflomigrationWORKFLOWINTERNALSOURCE_source_path:n</title>
<path fill="none" stroke="#000000" d="M225,-543C225,-535.643 217.006,-538.246 210,-536 191.489,-530.065 184.042,-537.352 167,-528 163.003,-525.806 159.503,-524.336 157.002,-522.275"/>
<polygon fill="#000000" stroke="#000000" points="160.176,-520.795 153,-513 153.748,-523.568 160.176,-520.795"/>
</g>
<!-- Preservation_WorkfloWORKFLOWINTERNALSOURCE_source_path&#45;&gt;Preservation_WorkfloQA_mseWORKFLOWINTERNALSOURCE_left_path -->
<g id="edge83" class="edge"><title>Preservation_WorkfloWORKFLOWINTERNALSOURCE_source_path:s&#45;&gt;Preservation_WorkfloQA_mseWORKFLOWINTERNALSOURCE_left_path:n</title>
<path fill="none" stroke="#000000" d="M225,-543C225,-507.889 225,-499.111 225,-464 225,-464 225,-464 225,-428 225,-394.714 225,-383.954 225,-355.067"/>
<polygon fill="#000000" stroke="#000000" points="228.5,-355 225,-345 221.5,-355 228.5,-355"/>
</g>
<!-- Preservation_WorkfloWORKFLOWINTERNALSOURCE_source_path&#45;&gt;Preservation_WorkfloCC_sourceWORKFLOWINTERNALSOURCE_source_path -->
<g id="edge89" class="edge"><title>Preservation_WorkfloWORKFLOWINTERNALSOURCE_source_path:s&#45;&gt;Preservation_WorkfloCC_sourceWORKFLOWINTERNALSOURCE_source_path:n</title>
<path fill="none" stroke="#000000" d="M225,-543C225,-522.572 272,-484.428 272,-464 272,-464 272,-464 272,-428 272,-391.24 302.65,-386.096 308.158,-355.017"/>
<polygon fill="#000000" stroke="#000000" points="311.65,-355.258 309,-345 304.674,-354.672 311.65,-355.258"/>
</g>
<!-- Preservation_Workflocompression_value -->
<g id="node105" class="node"><title>Preservation_Workflocompression_value</title>
<ellipse fill="#b0c4de" stroke="black" cx="128" cy="-555" rx="10.25" ry="10.5"/>
</g>
<!-- Preservation_Workflocompression_value&#45;&gt;Preservation_WorkflomigrationWORKFLOWINTERNALSOURCE_compression -->
<g id="edge113" class="edge"><title>Preservation_Workflocompression_value:ovalue:s&#45;&gt;Preservation_WorkflomigrationWORKFLOWINTERNALSOURCE_compression:n</title>
<path fill="none" stroke="#000000" d="M128,-544.225C128,-538.449 128,-530.771 128,-523.04"/>
<polygon fill="#000000" stroke="#000000" points="131.5,-523 128,-513 124.5,-523 131.5,-523"/>
</g>
</g>
</svg>
